<svg width="57" height="57" viewBox="0 0 57 57" fill="none" xmlns="http://www.w3.org/2000/svg">
<path d="M36.6228 13.4743C36.6228 13.4743 36.5816 13.5155 36.4993 13.5978C36.417 13.6801 36.2606 13.7212 36.0302 13.7212C35.7997 13.7212 35.6022 13.6389 35.4376 13.4743C35.273 13.3097 35.1907 13.0957 35.1907 12.8323V11.1533C35.1907 10.6266 35.4705 10.3632 36.0302 10.3632C36.5899 10.3632 36.8697 10.6266 36.8697 11.1533V12.8323C36.8697 13.0957 36.7874 13.3097 36.6228 13.4743ZM33.2647 13.4743C33.2647 13.4743 33.2236 13.5155 33.1413 13.5978C33.059 13.6801 32.9026 13.7212 32.6722 13.7212C32.4417 13.7212 32.2442 13.6389 32.0796 13.4743C31.915 13.3097 31.8326 13.0957 31.8326 12.8323V11.1533C31.8326 10.6266 32.1125 10.3632 32.6722 10.3632C33.2318 10.3632 33.5117 10.6266 33.5117 11.1533V12.8323C33.5117 13.0957 33.4294 13.3097 33.2647 13.4743ZM31.8326 51.6472C32.4252 51.6472 32.7215 51.927 32.7215 52.4867C32.7215 53.0463 32.4252 53.3262 31.8326 53.3262H25.1166C24.524 53.3262 24.2277 53.0463 24.2277 52.4867C24.2277 51.927 24.524 51.6472 25.1166 51.6472H31.8326ZM33.5117 33.3756C35.1578 34.7583 36.0137 36.536 36.0796 38.7089C36.1454 40.8817 35.4211 42.7253 33.9067 44.2398C33.0508 45.1616 32.6557 46.2151 32.7215 47.4002C32.7215 48.1245 32.4746 48.7336 31.9808 49.2274C31.487 49.7212 30.8779 49.9681 30.1536 49.9681H26.7956C26.0713 49.9681 25.4623 49.7212 24.9685 49.2274C24.4746 48.7336 24.2277 48.1245 24.2277 47.4002C24.2277 46.2151 23.8326 45.1616 23.0425 44.2398C21.2647 42.3961 20.5734 40.2562 20.9685 37.82C21.2318 36.4373 21.7915 35.2192 22.6475 34.1657C23.5034 33.1122 24.5899 32.355 25.9067 31.8941C28.738 30.8406 31.273 31.3344 33.5117 33.3756ZM31.0425 47.4002C30.9767 45.7542 31.5364 44.3221 32.7215 43.1039C33.9067 41.8858 34.4664 40.4373 34.4006 38.7583C34.3347 37.0793 33.6763 35.6801 32.4252 34.5607C31.3059 33.5731 29.989 33.0793 28.4746 33.0793C28.2771 33.0793 28.0466 33.1122 27.7833 33.178C26.6639 33.3097 25.6763 33.7212 24.8203 34.4126C23.9643 35.1039 23.3388 35.9764 22.9438 37.0299C22.0878 39.2686 22.5158 41.2768 24.2277 43.0546C25.4129 44.3056 25.9726 45.7542 25.9067 47.4002C25.9067 47.9928 26.203 48.2891 26.7956 48.2891H30.1536C30.7462 48.2891 31.0425 47.9928 31.0425 47.4002ZM27.5857 27.1533C27.5857 26.6266 27.882 26.3632 28.4746 26.3632C29.0672 26.3632 29.3635 26.6266 29.3635 27.1533V28.9311C29.3635 29.4579 29.0672 29.7212 28.4746 29.7212C27.882 29.7212 27.5857 29.4579 27.5857 28.9311V27.1533ZM20.7709 32.4867L19.487 31.2027C19.2894 31.0052 19.2401 30.7418 19.3388 30.4126C19.4376 30.0834 19.6351 29.8858 19.9314 29.82C20.2277 29.7542 20.5075 29.82 20.7709 30.0175L21.9561 31.2027C22.1536 31.4661 22.2195 31.7459 22.1536 32.0422C22.0878 32.3385 21.8903 32.536 21.561 32.6348C21.2318 32.7336 20.9685 32.6842 20.7709 32.4867ZM18.4006 38.1163C18.9273 38.1163 19.1907 38.3961 19.1907 38.9558C19.1907 39.5155 18.9273 39.7953 18.4006 39.7953H16.7215C16.1289 39.7953 15.8326 39.5155 15.8326 38.9558C15.8326 38.3961 16.1289 38.1163 16.7215 38.1163H18.4006ZM20.7709 45.5237C20.9685 45.3262 21.2318 45.2603 21.561 45.3262C21.8903 45.392 22.0878 45.5895 22.1536 45.9188C22.2195 46.248 22.1536 46.5114 21.9561 46.7089L20.7709 47.8941C20.5734 48.0916 20.3594 48.1904 20.1289 48.1904C19.8985 48.1904 19.701 48.1081 19.5364 47.9435C19.3717 47.7788 19.2894 47.5813 19.2894 47.3509C19.2894 47.1204 19.3553 46.9064 19.487 46.7089L20.7709 45.5237ZM36.1783 30.0175C36.3759 29.8858 36.5899 29.82 36.8203 29.82C37.0508 29.82 37.2483 29.9023 37.4129 30.0669C37.5775 30.2315 37.6598 30.4291 37.6598 30.6595C37.6598 30.89 37.594 31.071 37.4623 31.2027L36.1783 32.4867C35.9808 32.6842 35.7174 32.7336 35.3882 32.6348C35.059 32.536 34.8615 32.3385 34.7956 32.0422C34.7298 31.7459 34.7956 31.4661 34.9931 31.2027L36.1783 30.0175ZM40.2277 38.1163C40.8203 38.1163 41.1166 38.3961 41.1166 38.9558C41.1166 39.5155 40.8203 39.7953 40.2277 39.7953H38.5487C38.0219 39.7953 37.7586 39.5155 37.7586 38.9558C37.7586 38.3961 38.0219 38.1163 38.5487 38.1163H40.2277ZM36.1783 45.5237L37.4623 46.7089C37.6598 46.9723 37.7092 47.2521 37.6104 47.5484C37.5117 47.8447 37.3141 48.0422 37.0178 48.141C36.7215 48.2398 36.4417 48.1574 36.1783 47.8941L34.9931 46.7089C34.7956 46.5114 34.7298 46.248 34.7956 45.9188C34.8615 45.5895 35.059 45.392 35.3882 45.3262C35.7174 45.2603 35.9808 45.3262 36.1783 45.5237ZM11.9808 12.7336C11.7174 12.536 11.5857 12.2891 11.5857 11.9928C11.5857 11.6965 11.7174 11.4826 11.9808 11.3509C14.2195 9.83646 15.8326 9.07926 16.8203 9.07926C16.8861 8.94757 16.9849 8.8488 17.1166 8.78296L19.487 7.59778L16.0302 4.23975C15.7668 3.97638 15.7174 3.66362 15.882 3.30148C16.0466 2.93934 16.3265 2.75827 16.7215 2.75827H25.9067C26.1043 2.75827 26.3018 2.82412 26.4993 2.9558L31.3388 7.00518H39.4376C42.0055 7.00518 44.6392 8.3879 47.3388 11.1533H51.1907C51.915 11.1533 52.524 11.4002 53.0178 11.8941C53.5117 12.3879 53.7586 12.997 53.7586 13.7212C53.7586 14.248 53.4787 14.5114 52.9191 14.5114C52.3594 14.5114 52.0796 14.2315 52.0796 13.6719C52.0796 13.1122 51.7833 12.8323 51.1907 12.8323H47.3388C44.6392 15.6636 42.0055 17.0793 39.4376 17.0793H31.3388L26.4993 21.1286C26.3018 21.2603 26.1043 21.3262 25.9067 21.3262H16.7215C16.3265 21.3262 16.0466 21.1451 15.882 20.783C15.7174 20.4208 15.7668 20.1081 16.0302 19.8447L19.487 16.4867L17.1166 15.3015C16.9849 15.2356 16.8861 15.1369 16.8203 15.0052C15.8326 15.0052 14.2195 14.248 11.9808 12.7336ZM40.2277 8.78296V15.3015C42.0055 15.0381 43.882 13.9517 45.8573 12.0422C43.882 10.1328 42.0055 9.04634 40.2277 8.78296ZM25.6104 19.6472L28.6722 17.0793H21.2647L18.6968 19.6472H25.6104ZM21.7586 15.4002H24.2277V8.6842H21.7586V15.4002ZM38.5487 8.6842H25.9067V15.4002H38.5487V8.6842ZM18.6968 4.43728L21.2647 7.00518H28.6722L25.6104 4.43728H18.6968ZM18.4006 10.0669V14.0175L20.0796 14.9064V9.17802L18.4006 10.0669ZM16.7215 10.7583C15.7339 11.0875 14.845 11.5155 14.0549 12.0422C14.845 12.569 15.7339 12.997 16.7215 13.3262V10.7583ZM52.3265 36.6842C52.3265 36.6842 52.3676 36.643 52.4499 36.5607C52.5322 36.4784 52.6886 36.4373 52.9191 36.4373C53.1495 36.4373 53.3471 36.5196 53.5117 36.6842C53.6763 36.8488 53.7586 37.0628 53.7586 37.3262C53.7586 37.9846 53.5117 38.5607 53.0178 39.0546C52.524 39.5484 51.915 39.7953 51.1907 39.7953H45.6598L45.9561 40.0916C46.3512 40.4867 46.3512 40.8817 45.9561 41.2768C45.561 41.6719 45.166 41.6719 44.7709 41.2768L43.0919 39.5978C42.6968 39.2027 42.6968 38.8077 43.0919 38.4126L44.7709 36.7336C45.166 36.3385 45.561 36.3385 45.9561 36.7336C46.3512 37.1286 46.3512 37.5237 45.9561 37.9188L45.6598 38.1163H51.1907C51.7833 38.1163 52.0796 37.8529 52.0796 37.3262C52.0796 37.0628 52.1619 36.8488 52.3265 36.6842ZM52.3265 16.536C52.3265 16.536 52.3676 16.4949 52.4499 16.4126C52.5322 16.3303 52.6886 16.2891 52.9191 16.2891C53.1495 16.2891 53.3471 16.3714 53.5117 16.536C53.6763 16.7007 53.7586 16.8817 53.7586 17.0793V20.4373C53.7586 21.0299 53.4787 21.3262 52.9191 21.3262C52.3594 21.3262 52.0796 21.0299 52.0796 20.4373V17.0793C52.0796 16.8817 52.1619 16.7007 52.3265 16.536ZM52.3265 23.2521C52.3265 23.2521 52.3676 23.2109 52.4499 23.1286C52.5322 23.0463 52.6886 23.0052 52.9191 23.0052C53.1495 23.0052 53.3471 23.0875 53.5117 23.2521C53.6763 23.4167 53.7586 23.5978 53.7586 23.7953V27.1533C53.7586 27.7459 53.4787 28.0422 52.9191 28.0422C52.3594 28.0422 52.0796 27.7459 52.0796 27.1533V23.7953C52.0796 23.5978 52.1619 23.4167 52.3265 23.2521ZM52.3265 29.9681C52.3265 29.9681 52.3676 29.927 52.4499 29.8447C52.5322 29.7624 52.6886 29.7212 52.9191 29.7212C53.1495 29.7212 53.3471 29.8035 53.5117 29.9681C53.6763 30.1328 53.7586 30.3467 53.7586 30.6101V33.9681C53.7586 34.4949 53.4787 34.7583 52.9191 34.7583C52.3594 34.7583 52.0796 34.4949 52.0796 33.9681V30.6101C52.0796 30.3467 52.1619 30.1328 52.3265 29.9681ZM9.70919 11.4496C10.1043 11.8447 10.1043 12.2398 9.70919 12.6348L8.03018 14.3138C7.76681 14.5114 7.48697 14.5772 7.19067 14.5114C6.89438 14.4455 6.69685 14.248 6.59808 13.9188C6.49932 13.5895 6.58162 13.3262 6.84499 13.1286L7.04253 12.8323H5.75857C5.16598 12.8323 4.86969 13.1122 4.86969 13.6719C4.86969 14.2315 4.58985 14.5114 4.03018 14.5114C3.47051 14.5114 3.19067 14.248 3.19067 13.7212C3.19067 12.997 3.43759 12.3879 3.93141 11.8941C4.42524 11.4002 5.0343 11.1533 5.75857 11.1533H7.04253L6.84499 10.9558C6.44993 10.5607 6.44993 10.1657 6.84499 9.77061C7.24006 9.37555 7.63512 9.37555 8.03018 9.77061L9.70919 11.4496ZM6.5487 38.1163C7.14129 38.1163 7.43759 38.3961 7.43759 38.9558C7.43759 39.5155 7.14129 39.7953 6.5487 39.7953H5.75857C5.0343 39.7953 4.42524 39.5484 3.93141 39.0546C3.43759 38.5607 3.19067 37.9846 3.19067 37.3262C3.19067 36.7336 3.47051 36.4373 4.03018 36.4373C4.58985 36.4373 4.86969 36.7171 4.86969 37.2768C4.86969 37.8365 5.16598 38.1163 5.75857 38.1163H6.5487ZM4.62277 21.0793C4.62277 21.0793 4.58162 21.1204 4.49932 21.2027C4.41701 21.285 4.26063 21.3262 4.03018 21.3262C3.79973 21.3262 3.6022 21.2439 3.43759 21.0793C3.27298 20.9146 3.19067 20.7007 3.19067 20.4373V17.0793C3.19067 16.5525 3.47051 16.2891 4.03018 16.2891C4.58985 16.2891 4.86969 16.5525 4.86969 17.0793V20.4373C4.86969 20.7007 4.78738 20.9146 4.62277 21.0793ZM4.62277 27.7953C4.62277 27.7953 4.58162 27.8365 4.49932 27.9188C4.41701 28.0011 4.26063 28.0422 4.03018 28.0422C3.79973 28.0422 3.6022 27.9599 3.43759 27.7953C3.27298 27.6307 3.19067 27.4167 3.19067 27.1533V23.7953C3.19067 23.2686 3.47051 23.0052 4.03018 23.0052C4.58985 23.0052 4.86969 23.2686 4.86969 23.7953V27.1533C4.86969 27.4167 4.78738 27.6307 4.62277 27.7953ZM4.62277 34.5114C4.62277 34.5114 4.58162 34.5525 4.49932 34.6348C4.41701 34.7171 4.26063 34.7583 4.03018 34.7583C3.79973 34.7583 3.6022 34.676 3.43759 34.5114C3.27298 34.3467 3.19067 34.1657 3.19067 33.9681V30.6101C3.19067 30.0175 3.47051 29.7212 4.03018 29.7212C4.58985 29.7212 4.86969 30.0175 4.86969 30.6101V33.9681C4.86969 34.1657 4.78738 34.3467 4.62277 34.5114ZM13.2647 38.1163C13.8573 38.1163 14.1536 38.3961 14.1536 38.9558C14.1536 39.5155 13.8573 39.7953 13.2647 39.7953H9.90672C9.70919 39.7953 9.52812 39.713 9.36351 39.5484C9.1989 39.3838 9.1166 39.1863 9.1166 38.9558C9.1166 38.7253 9.1989 38.5278 9.36351 38.3632C9.52812 38.1986 9.70919 38.1163 9.90672 38.1163H13.2647Z" fill="#CE0E71"/>
</svg>
