<svg width="57" height="57" viewBox="0 0 57 57" fill="none" xmlns="http://www.w3.org/2000/svg">
<path d="M9.90672 16.2891C9.37997 16.2891 9.1166 15.9928 9.1166 15.4002C9.1166 14.8077 9.37997 14.5114 9.90672 14.5114H22.5487C23.1413 14.5114 23.4376 14.8077 23.4376 15.4002C23.4376 15.9928 23.1413 16.2891 22.5487 16.2891H9.90672ZM9.90672 13.7212C9.37997 13.7212 9.1166 13.4414 9.1166 12.8817C9.1166 12.3221 9.37997 12.0422 9.90672 12.0422H17.5117C18.1043 12.0422 18.4006 12.3221 18.4006 12.8817C18.4006 13.4414 18.1043 13.7212 17.5117 13.7212H9.90672ZM22.5487 17.0793C23.1413 17.0793 23.4376 17.3591 23.4376 17.9188C23.4376 18.4784 23.1413 18.7583 22.5487 18.7583H9.90672C9.37997 18.7583 9.1166 18.4784 9.1166 17.9188C9.1166 17.3591 9.37997 17.0793 9.90672 17.0793H22.5487ZM53.7586 6.11629V41.5731H30.5487L40.9191 51.8447C41.3141 52.2398 41.3141 52.6677 40.9191 53.1286C40.7215 53.2603 40.5075 53.3262 40.2771 53.3262C40.0466 53.3262 39.8326 53.2603 39.6351 53.1286L29.3635 42.7583V50.7583C29.3635 51.3509 29.0672 51.6472 28.4746 51.6472C27.882 51.6472 27.5857 51.3509 27.5857 50.7583V42.7583L17.3141 53.1286C17.1166 53.2603 16.9026 53.3262 16.6722 53.3262C16.4417 53.3262 16.2277 53.2603 16.0302 53.1286C15.6351 52.6677 15.6351 52.2398 16.0302 51.8447L26.4006 41.5731H3.19067V6.11629H27.5857V3.64716C27.5857 3.05457 27.882 2.75827 28.4746 2.75827C29.0672 2.75827 29.3635 3.05457 29.3635 3.64716V6.11629H53.7586ZM52.0796 39.7953V7.79531H4.86969V39.7953H52.0796ZM37.7586 19.6472C37.166 19.6472 36.8697 19.3673 36.8697 18.8077C36.8697 18.248 37.166 17.9681 37.7586 17.9681H43.6845C43.7503 17.9681 43.8491 17.9681 43.9808 17.9681C44.1783 18.0998 44.31 18.2644 44.3759 18.462C44.4417 18.5278 44.4746 18.6266 44.4746 18.7583V24.6842C44.4746 25.2109 44.1948 25.4743 43.6351 25.4743C43.0754 25.4743 42.7956 25.2109 42.7956 24.6842V20.8323L32.1289 31.499C31.9314 31.6965 31.7174 31.7953 31.487 31.7953C31.2565 31.7953 31.0754 31.6965 30.9438 31.499L23.9314 24.4867L13.8573 34.5607C13.7257 34.6924 13.5446 34.7583 13.3141 34.7583C13.0837 34.7583 12.8697 34.6924 12.6722 34.5607C12.2771 34.1657 12.2771 33.7706 12.6722 33.3756L23.3388 22.7089C23.7339 22.3138 24.1289 22.3138 24.524 22.7089L31.5364 29.7212L41.6104 19.6472H37.7586Z" fill="#CE0E71"/>
</svg>
