<svg width="57" height="57" viewBox="0 0 57 57" fill="none" xmlns="http://www.w3.org/2000/svg">
<path d="M8.32648 37.3262C8.32648 37.8529 8.04664 38.1163 7.48697 38.1163C6.9273 38.1163 6.64746 37.8529 6.64746 37.3262V35.6472C6.64746 35.0546 6.9273 34.7583 7.48697 34.7583C8.04664 34.7583 8.32648 35.0546 8.32648 35.6472V37.3262ZM8.32648 45.7212C8.32648 46.3138 8.04664 46.6101 7.48697 46.6101C6.9273 46.6101 6.64746 46.3138 6.64746 45.7212V40.6842C6.64746 40.0916 6.9273 39.7953 7.48697 39.7953C8.04664 39.7953 8.32648 40.0916 8.32648 40.6842V45.7212ZM5.75857 49.9681C5.0343 49.9681 4.42524 49.7212 3.93141 49.2274C3.43759 48.7336 3.19067 48.1245 3.19067 47.4002V34.1657C3.19067 33.4414 3.43759 32.8159 3.93141 32.2891C4.42524 31.7624 5.0343 31.4661 5.75857 31.4002H7.93141C7.6022 30.6101 7.43759 29.7542 7.43759 28.8323V9.47432C7.43759 7.6307 8.09602 6.05045 9.4129 4.73358C10.7298 3.41671 12.31 2.75827 14.1536 2.75827H44.4746C46.3841 2.75827 47.9973 3.41671 49.3141 4.73358C50.631 6.05045 51.2894 7.6307 51.2894 9.47432V28.8323C51.2894 30.7418 50.631 32.355 49.3141 33.6719C47.9973 34.9887 46.3841 35.6472 44.4746 35.6472H41.1166C41.0508 35.7788 41.0178 35.9105 41.0178 36.0422C40.7545 36.7007 40.2936 37.2274 39.6351 37.6225C40.4911 38.6101 40.7215 39.7295 40.3265 40.9805C40.0631 41.9023 39.5034 42.5278 38.6475 42.857C39.3059 43.8447 39.4705 44.8982 39.1413 46.0175C38.5487 47.5319 37.4623 48.2891 35.882 48.2891H35.7833C36.2442 49.1451 36.3429 50.034 36.0796 50.9558C35.487 52.4702 34.4006 53.2603 32.8203 53.3262H18.8944C18.8285 53.3262 18.6639 53.3262 18.4006 53.3262C15.3059 53.3262 12.9355 52.4044 11.2894 50.5607C11.1578 50.4291 11.059 50.2974 10.9931 50.1657C10.8615 50.034 10.631 49.9681 10.3018 49.9681H5.75857ZM9.1166 9.47432V28.8323C9.1166 29.7542 9.34705 30.6101 9.80796 31.4002C10.7956 31.4661 11.7174 31.2356 12.5734 30.7089C12.9685 30.3797 13.3635 30.0175 13.7586 29.6225C15.4705 27.8447 18.4664 25.9352 22.7462 23.8941C26.7627 22.0505 29.5281 20.3714 31.0425 18.857C31.8326 17.9352 32.7874 17.6719 33.9067 18.0669C35.1578 18.6595 35.7833 19.6472 35.7833 21.0299C35.7833 22.0175 35.1578 23.2027 33.9067 24.5854C32.6557 25.9681 31.4047 27.1204 30.1536 28.0422C29.8244 28.2398 29.561 28.4373 29.3635 28.6348L28.6722 29.1286C27.882 29.7212 27.2236 30.4126 26.6968 31.2027C26.6968 31.2027 26.6639 31.2686 26.5981 31.4002H30.9438H37.7586C38.7462 31.4661 39.5364 31.8282 40.1289 32.4867C40.524 32.8817 40.8203 33.3756 41.0178 33.9681H44.4746C45.3964 33.9681 46.2524 33.7377 47.0425 33.2768C47.8326 32.8159 48.4582 32.1904 48.9191 31.4002C49.38 30.6101 49.6104 29.7542 49.6104 28.8323V9.47432C49.6104 8.0916 49.1166 6.90642 48.1289 5.91876C47.1413 4.93111 45.9232 4.43728 44.4746 4.43728H14.1536C12.7709 4.43728 11.5857 4.93111 10.5981 5.91876C9.61043 6.90642 9.1166 8.0916 9.1166 9.47432ZM4.86969 34.1657V47.4002C4.86969 47.927 5.16598 48.2233 5.75857 48.2891H10.3018C11.2236 48.1574 11.9479 48.4867 12.4746 49.2768C12.4746 49.3426 12.4746 49.4085 12.4746 49.4743C12.9355 49.9352 13.4623 50.3138 14.0549 50.6101C14.6475 50.9064 15.2071 51.1204 15.7339 51.2521C16.2606 51.3838 16.7709 51.4826 17.2647 51.5484C17.7586 51.6142 18.1372 51.6307 18.4006 51.5978C18.6639 51.5649 18.7956 51.5813 18.7956 51.6472H32.8203C33.6104 51.5813 34.1701 51.1863 34.4993 50.462C34.6968 49.8035 34.5322 49.2439 34.0055 48.783C33.7421 48.4537 33.38 48.2891 32.9191 48.2891H30.9438C30.3512 48.2891 30.0549 48.0093 30.0549 47.4496C30.0549 46.89 30.3512 46.6101 30.9438 46.6101H35.882C36.6722 46.5443 37.1989 46.1821 37.4623 45.5237C37.7257 44.7994 37.594 44.1739 37.0672 43.6472C36.738 43.3179 36.3429 43.1533 35.882 43.1533H32.1289C31.5364 43.1533 31.2401 42.8735 31.2401 42.3138C31.2401 41.7542 31.5364 41.4743 32.1289 41.4743H37.0672C37.8573 41.5402 38.417 41.2109 38.7462 40.4867C38.9438 39.8282 38.8121 39.2027 38.3512 38.6101C38.0219 38.2809 37.6269 38.1163 37.166 38.1163H33.3141C32.7874 38.1163 32.524 37.8365 32.524 37.2768C32.524 36.7171 32.7874 36.4373 33.3141 36.4373H37.166C37.2977 36.4373 37.4294 36.4702 37.561 36.536C37.6269 36.4702 37.6927 36.4373 37.7586 36.4373C38.4829 36.5031 39.0096 36.2068 39.3388 35.5484C39.5364 34.8241 39.4047 34.1986 38.9438 33.6719C38.6804 33.3426 38.2853 33.1451 37.7586 33.0793H26.4993C25.9067 33.0793 25.4458 32.8159 25.1166 32.2891C24.7874 31.8282 24.7545 31.3344 25.0178 30.8077C25.1495 30.5443 25.2483 30.3797 25.3141 30.3138C25.9067 29.3262 26.6639 28.5031 27.5857 27.8447L28.2771 27.2521C28.5405 27.1204 28.8368 26.9229 29.166 26.6595C30.417 25.7377 31.5528 24.7007 32.5734 23.5484C33.594 22.3961 34.1043 21.5566 34.1043 21.0299C34.1043 20.4373 33.8409 19.9764 33.3141 19.6472C32.9849 19.5155 32.6228 19.6472 32.2277 20.0422C30.5816 21.6883 27.6845 23.499 23.5364 25.4743C19.3882 27.3838 16.524 29.1616 14.9438 30.8077C14.5487 31.2686 14.0878 31.6965 13.561 32.0916C12.6392 32.75 11.1248 33.0793 9.01783 33.0793H5.75857C5.56104 33.0793 5.36351 33.1945 5.16598 33.4249C4.96845 33.6554 4.86969 33.9023 4.86969 34.1657ZM11.1907 16.0916C10.8615 15.8941 10.7462 15.5813 10.845 15.1533C10.9438 14.7253 11.2236 14.5114 11.6845 14.5114H14.845L15.9314 10.9558C15.9973 10.5607 16.2442 10.3632 16.6722 10.3632C17.1001 10.3632 17.38 10.5607 17.5117 10.9558L18.4993 14.5114H21.7586C22.2195 14.5114 22.4993 14.7253 22.5981 15.1533C22.6968 15.5813 22.5487 15.8941 22.1536 16.0916L19.5857 17.5731L20.6722 21.0299C20.738 21.4249 20.6063 21.7377 20.2771 21.9681C19.9479 22.1986 19.6187 22.1821 19.2894 21.9188L16.7215 19.7459L14.1536 21.9188C13.8244 22.1821 13.4787 22.1986 13.1166 21.9681C12.7545 21.7377 12.6392 21.4249 12.7709 21.0299L13.7586 17.5731L11.1907 16.0916ZM15.5364 16.1904H14.7462L15.2401 16.4867C15.5693 16.6842 15.701 17.0134 15.6351 17.4743L15.1413 18.857L16.1289 17.9681C16.524 17.7048 16.8861 17.7048 17.2154 17.9681L18.203 18.857L17.808 17.4743C17.6763 17.0134 17.808 16.6842 18.203 16.4867L18.5981 16.1904H17.9067C17.5117 16.1904 17.2483 15.9928 17.1166 15.5978L16.7215 14.3138L16.3265 15.5978C16.1948 15.9928 15.9314 16.1904 15.5364 16.1904ZM23.8326 11.9435C23.5034 11.6801 23.3882 11.3509 23.487 10.9558C23.5857 10.5607 23.8656 10.3632 24.3265 10.3632H27.487L28.5734 6.70889C28.6392 6.31383 28.8861 6.11629 29.3141 6.11629C29.7421 6.11629 30.0219 6.31383 30.1536 6.70889L31.1413 10.3632H34.4006C34.8615 10.3632 35.1413 10.5607 35.2401 10.9558C35.3388 11.3509 35.1907 11.6801 34.7956 11.9435L32.2277 13.4249L33.3141 16.8817C33.38 17.2768 33.2483 17.5895 32.9191 17.82C32.5899 18.0505 32.2606 18.034 31.9314 17.7706L29.3635 15.499L26.7956 17.7706C26.4664 18.034 26.1207 18.0505 25.7586 17.82C25.3964 17.5895 25.2812 17.2768 25.4129 16.8817L26.4006 13.4249L23.8326 11.9435ZM28.1783 12.0422H27.3882L27.882 12.2398C28.2113 12.5031 28.31 12.8323 28.1783 13.2274L27.7833 14.6101L28.7709 13.82C29.166 13.4908 29.5281 13.4908 29.8573 13.82L30.845 14.6101L30.4499 13.2274C30.3182 12.8323 30.4499 12.5031 30.845 12.2398L31.2401 12.0422H30.5487C30.0878 12.0422 29.8244 11.8447 29.7586 11.4496L29.3635 10.0669L28.9685 11.4496C28.8368 11.8447 28.5734 12.0422 28.1783 12.0422ZM36.4746 16.0916C36.1454 15.8941 36.0302 15.5813 36.1289 15.1533C36.2277 14.7253 36.5075 14.5114 36.9685 14.5114H40.1289L41.2154 10.9558C41.2812 10.5607 41.5281 10.3632 41.9561 10.3632C42.3841 10.3632 42.6639 10.5607 42.7956 10.9558L43.7833 14.5114H47.0425C47.5034 14.5114 47.7833 14.7253 47.882 15.1533C47.9808 15.5813 47.8326 15.8941 47.4376 16.0916L44.8697 17.5731L45.9561 21.0299C46.0219 21.4249 45.8903 21.7377 45.561 21.9681C45.2318 22.1986 44.9026 22.1821 44.5734 21.9188L42.0055 19.7459L39.4376 21.9188C39.1084 22.1821 38.7627 22.1986 38.4006 21.9681C38.0384 21.7377 37.9232 21.4249 38.0549 21.0299L39.0425 17.5731L36.4746 16.0916ZM40.8203 16.1904H40.0302L40.524 16.4867C40.8532 16.6842 40.952 17.0134 40.8203 17.4743L40.4252 18.857L41.4129 17.9681C41.808 17.7048 42.1701 17.7048 42.4993 17.9681L43.487 18.857L43.0919 17.4743C42.9602 17.0134 43.0919 16.6842 43.487 16.4867L43.882 16.1904H43.1907C42.7298 16.1904 42.4664 15.9928 42.4006 15.5978L42.0055 14.3138L41.6104 15.5978C41.4787 15.9928 41.2154 16.1904 40.8203 16.1904Z" fill="#CE0E71"/>
</svg>
