<svg width="81" height="80" viewBox="0 0 81 80" fill="none" xmlns="http://www.w3.org/2000/svg">
<path fill-rule="evenodd" clip-rule="evenodd" d="M38.843 35.8984C38.5668 35.8984 38.3428 36.1224 38.3428 36.3987V57.7112C38.3428 57.9874 38.5668 58.2114 38.843 58.2114H43.3009C43.5772 58.2114 43.8011 57.9874 43.8011 57.7112V36.3987C43.8011 36.1224 43.5772 35.8984 43.3009 35.8984H38.843ZM30.0612 39.8206C30.0612 39.5444 30.2852 39.3204 30.5614 39.3204H35.0193C35.2956 39.3204 35.5195 39.5444 35.5195 39.8206V57.7112C35.5195 57.9874 35.2956 58.2114 35.0193 58.2114H30.5614C30.2852 58.2114 30.0612 57.9874 30.0612 57.7112V39.8206ZM22.2797 45.0137C22.0035 45.0137 21.7795 45.2377 21.7795 45.5139V57.7112C21.7795 57.9874 22.0035 58.2114 22.2797 58.2114H26.7376C27.0139 58.2114 27.2378 57.9874 27.2378 57.7112V45.5139C27.2378 45.2377 27.0139 45.0137 26.7376 45.0137H22.2797ZM13.8982 49.2388C13.6219 49.2388 13.3979 49.4627 13.3979 49.739V57.7112C13.3979 57.9874 13.6219 58.2114 13.8982 58.2114H18.356C18.6323 58.2114 18.8563 57.9874 18.8563 57.7112V49.739C18.8563 49.4627 18.6323 49.2388 18.356 49.2388H13.8982Z" fill="#FFE0BE"/>
<path fill-rule="evenodd" clip-rule="evenodd" d="M39.4002 34.127C38.0761 34.127 36.9963 35.2067 36.9963 36.5308V56.716C36.9963 58.0401 38.0761 59.1198 39.4002 59.1198H42.4759C43.8001 59.1198 44.8798 58.0401 44.8798 56.716V36.5308C44.8798 35.2067 43.8001 34.127 42.4759 34.127H39.4002ZM38.9281 36.5308C38.9281 36.2705 39.1399 36.0587 39.4002 36.0587H42.4759C42.7362 36.0587 42.948 36.2705 42.948 36.5308V56.716C42.948 56.9763 42.7362 57.1881 42.4759 57.1881H39.4002C39.1399 57.1881 38.9281 56.9763 38.9281 56.716V36.5308Z" fill="#090909"/>
<path fill-rule="evenodd" clip-rule="evenodd" d="M31.2517 37.7221C29.9276 37.7221 28.8478 38.8019 28.8478 40.126V56.8094C28.8478 58.1335 29.9276 59.2132 31.2517 59.2132H34.3274C35.6515 59.2132 36.7313 58.1335 36.7313 56.8094V40.126C36.7313 38.8019 35.6515 37.7221 34.3274 37.7221H31.2517ZM30.7796 40.126C30.7796 39.8657 30.9914 39.6539 31.2517 39.6539H34.3274C34.5877 39.6539 34.7995 39.8657 34.7995 40.126V56.8094C34.7995 57.0697 34.5877 57.2815 34.3274 57.2815H31.2517C30.9914 57.2815 30.7796 57.0697 30.7796 56.8094V40.126Z" fill="#090909"/>
<path fill-rule="evenodd" clip-rule="evenodd" d="M22.9701 43.4341C21.6459 43.4341 20.5662 44.5138 20.5662 45.838V57.009C20.5662 58.3332 21.6459 59.4129 22.9701 59.4129H26.0458C27.3699 59.4129 28.4496 58.3332 28.4496 57.009V45.838C28.4496 44.5138 27.3699 43.4341 26.0458 43.4341H22.9701ZM22.498 45.8247C22.498 45.5643 22.7098 45.3525 22.9701 45.3525H26.0458C26.3061 45.3525 26.5179 45.5643 26.5179 45.8247V56.9957C26.5179 57.256 26.3061 57.4678 26.0458 57.4678H22.9701C22.7098 57.4678 22.498 57.256 22.498 56.9957V45.8247Z" fill="#090909"/>
<path fill-rule="evenodd" clip-rule="evenodd" d="M14.688 47.8012C13.3638 47.8012 12.2841 48.8809 12.2841 50.2051V56.9956C12.2841 58.3197 13.3638 59.3995 14.688 59.3995H17.7637C19.0878 59.3995 20.1675 58.3197 20.1675 56.9956V50.2051C20.1675 48.8809 19.0878 47.8012 17.7637 47.8012H14.688ZM14.2158 50.2051C14.2158 49.9448 14.4277 49.733 14.688 49.733H17.7637C18.024 49.733 18.2358 49.9448 18.2358 50.2051V56.9956C18.2358 57.2559 18.024 57.4677 17.7637 57.4677H14.688C14.4277 57.4677 14.2158 57.2559 14.2158 56.9956V50.2051Z" fill="#090909"/>
<path d="M10.6138 16.4718C10.0752 16.4718 9.64788 16.8991 9.64788 17.4377C9.64788 17.9762 10.0752 18.4035 10.6138 18.4035H12.2648C12.8034 18.4035 13.2307 17.9762 13.2307 17.4377C13.2307 16.8991 12.8034 16.4718 12.2648 16.4718H10.6138Z" fill="#090909"/>
<path d="M14.7546 16.4718C14.216 16.4718 13.7887 16.8991 13.7887 17.4377C13.7887 17.9762 14.216 18.4035 14.7546 18.4035H31.0518C31.5904 18.4035 32.0177 17.9762 32.0177 17.4377C32.0177 16.8991 31.5904 16.4718 31.0518 16.4718H14.7546Z" fill="#090909"/>
<path d="M10.6138 20.3331C10.0752 20.3331 9.64788 20.7604 9.64788 21.2989C9.64788 21.8375 10.0752 22.2648 10.6138 22.2648H12.2648C12.8034 22.2648 13.2307 21.8375 13.2307 21.2989C13.2307 20.7604 12.8034 20.3331 12.2648 20.3331H10.6138Z" fill="#090909"/>
<path d="M14.7546 20.3331C14.216 20.3331 13.7887 20.7604 13.7887 21.2989C13.7887 21.8375 14.216 22.2648 14.7546 22.2648H31.0518C31.5904 22.2648 32.0177 21.8375 32.0177 21.2989C32.0177 20.7604 31.5904 20.3331 31.0518 20.3331H14.7546Z" fill="#090909"/>
<path d="M10.6138 24.2078C10.0752 24.2078 9.64788 24.6351 9.64788 25.1736C9.64788 25.7122 10.0752 26.1395 10.6138 26.1395H12.2648C12.8034 26.1395 13.2307 25.7122 13.2307 25.1736C13.2307 24.6351 12.8034 24.2078 12.2648 24.2078H10.6138Z" fill="#090909"/>
<path d="M14.7546 24.2078C14.216 24.2078 13.7887 24.6351 13.7887 25.1736C13.7887 25.7122 14.216 26.1395 14.7546 26.1395H31.0518C31.5904 26.1395 32.0177 25.7122 32.0177 25.1736C32.0177 24.6351 31.5904 24.2078 31.0518 24.2078H14.7546Z" fill="#090909"/>
<path d="M10.6138 28.069C10.0752 28.069 9.64788 28.4963 9.64788 29.0349C9.64788 29.5735 10.0752 30.0008 10.6138 30.0008H12.2648C12.8034 30.0008 13.2307 29.5735 13.2307 29.0349C13.2307 28.4963 12.8034 28.069 12.2648 28.069H10.6138Z" fill="#090909"/>
<path d="M14.7546 28.069C14.216 28.069 13.7887 28.4963 13.7887 29.0349C13.7887 29.5735 14.216 30.0008 14.7546 30.0008H31.0518C31.5904 30.0008 32.0177 29.5735 32.0177 29.0349C32.0177 28.4963 31.5904 28.069 31.0518 28.069H14.7546Z" fill="#090909"/>
<path d="M10.6138 31.9301C10.0752 31.9301 9.64788 32.3574 9.64788 32.8959C9.64788 33.4345 10.0752 33.8618 10.6138 33.8618H12.2648C12.8034 33.8618 13.2307 33.4345 13.2307 32.8959C13.2307 32.3574 12.8034 31.9301 12.2648 31.9301H10.6138Z" fill="#090909"/>
<path d="M14.7546 31.9301C14.216 31.9301 13.7887 32.3574 13.7887 32.8959C13.7887 33.4345 14.216 33.8618 14.7546 33.8618H31.0518C31.5904 33.8618 32.0177 33.4345 32.0177 32.8959C32.0177 32.3574 31.5904 31.9301 31.0518 31.9301H14.7546Z" fill="#090909"/>
<path fill-rule="evenodd" clip-rule="evenodd" d="M61.8224 50.3445C58.8605 50.3445 56.4493 52.7557 56.4493 55.7175C56.4493 58.6794 58.8605 61.0906 61.8224 61.0906C64.7842 61.0906 67.1954 58.6794 67.1954 55.7175C67.1954 52.7557 64.7842 50.3445 61.8224 50.3445ZM58.3811 55.7175C58.3811 53.8195 59.9244 52.2762 61.8224 52.2762C63.7204 52.2762 65.2637 53.8195 65.2637 55.7175C65.2637 57.6156 63.7204 59.1588 61.8224 59.1588C59.9244 59.1588 58.3811 57.6156 58.3811 55.7175Z" fill="#090909"/>
<path fill-rule="evenodd" clip-rule="evenodd" d="M66.5755 9.01562C64.7567 9.01562 63.1514 9.93005 62.182 11.3191H10.9998C7.69178 11.3191 5.00098 14.0099 5.00098 17.3179V57.1289C5.00098 60.437 7.69178 63.1278 10.9998 63.1278H48.4629C51.0683 67.8081 56.0728 70.9835 61.8088 70.9835C70.2297 70.9835 77.0747 64.1385 77.0747 55.7176C77.0747 49.9868 73.9052 44.9862 69.219 42.3789V19.0398C70.8354 18.1148 71.9485 16.3864 71.9485 14.3887C71.9485 11.4268 69.5373 9.01562 66.5755 9.01562ZM64.2004 11.9288C64.8267 11.327 65.6587 10.9607 66.5888 10.9607C68.4868 10.9607 70.0301 12.504 70.0301 14.402C70.0301 15.4742 69.519 16.4296 68.731 17.0705C68.3745 17.353 67.9586 17.5724 67.5091 17.6939L67.5034 17.6955C67.2006 17.7838 66.8974 17.8433 66.5755 17.8433C64.6775 17.8433 63.1342 16.3 63.1342 14.402C63.1342 13.9394 63.2313 13.499 63.4043 13.0788C63.5882 12.6377 63.8568 12.248 64.1967 11.9324L64.2004 11.9288ZM6.93272 17.3179C6.93272 15.0737 8.75561 13.2508 10.9998 13.2508H61.3528C61.2695 13.6108 61.2158 13.9906 61.2158 14.3887C61.2158 15.3481 61.4776 16.2348 61.9113 17.004L56.7177 22.1976C56.3478 22.0245 55.9404 21.9176 55.4976 21.9176C55.003 21.9176 54.5335 22.047 54.1244 22.2574L52.3986 20.5317C52.6174 20.1204 52.7354 19.6575 52.7354 19.1553C52.7354 17.5117 51.4027 16.1789 49.759 16.1789C48.1153 16.1789 46.7826 17.5117 46.7826 19.1553C46.7826 19.5682 46.8766 19.957 47.0271 20.3044L42.0744 25.2571C41.633 24.9999 41.1197 24.8468 40.5718 24.8468C38.9281 24.8468 37.5954 26.1795 37.5954 27.8232C37.5954 29.4669 38.9281 30.7996 40.5718 30.7996C42.2136 30.7996 43.5615 29.4689 43.5615 27.8232C43.5615 27.4234 43.4776 27.0571 43.3397 26.7181L48.3116 21.7461C48.7447 21.9893 49.2447 22.1184 49.7723 22.1184C50.2143 22.1184 50.6314 22.0119 51.0054 21.8381L52.8015 23.6343C52.6278 24.0083 52.5212 24.4253 52.5212 24.8674C52.5212 26.5111 53.8539 27.8438 55.4976 27.8438C57.1413 27.8438 58.474 26.5111 58.474 24.8674C58.474 24.3613 58.3445 23.8986 58.1245 23.4905L63.1535 18.4615C64.0806 19.2364 65.2661 19.7218 66.5755 19.7218C66.8189 19.7218 67.055 19.7033 67.2873 19.6707V41.4133C65.5826 40.7582 63.7419 40.3984 61.8088 40.3984C53.3879 40.3984 46.5429 47.2434 46.5429 55.6643C46.5429 57.5959 46.9021 59.4471 47.5567 61.1428H10.6997V61.1851C8.59532 61.0312 6.93272 59.2722 6.93272 57.1289V17.3179ZM48.7143 19.182C48.7143 18.6021 49.1791 18.1373 49.759 18.1373C50.3388 18.1373 50.8036 18.6021 50.8036 19.182C50.8036 19.7618 50.3388 20.2266 49.759 20.2266C49.1791 20.2266 48.7143 19.7618 48.7143 19.182ZM54.453 24.9206C54.453 24.3408 54.9178 23.876 55.4976 23.876C56.0775 23.876 56.5423 24.3408 56.5423 24.9206C56.5423 25.5005 56.0775 25.9653 55.4976 25.9653C54.9178 25.9653 54.453 25.5005 54.453 24.9206ZM39.5139 27.8499C39.5139 27.27 39.9786 26.8052 40.5585 26.8052C41.1422 26.8052 41.6165 27.2738 41.6165 27.8499C41.6165 28.4259 41.1422 28.8945 40.5585 28.8945C39.9786 28.8945 39.5139 28.4297 39.5139 27.8499ZM50.2274 62.2856C49.1644 60.4183 48.5172 58.2845 48.4648 56.0044H48.4747V55.7043C48.4747 48.5551 54.1437 42.7079 61.2158 42.3935V45.7776C55.998 46.0892 51.8555 50.4196 51.8555 55.7043C51.8555 57.4896 52.331 59.153 53.1546 60.6016L50.2274 62.2856ZM73.4169 62.2057L70.503 60.5294C71.3 59.097 71.7621 57.4616 71.7621 55.7043C71.7621 50.6741 68.0017 46.5071 63.1475 45.8391V42.4376C69.8696 43.1112 75.143 48.7963 75.143 55.691C75.143 58.0589 74.5107 60.2836 73.4169 62.2057ZM53.7873 55.7043C53.7873 51.2765 57.381 47.6827 61.8088 47.6827C66.2366 47.6827 69.8304 51.2765 69.8304 55.7043C69.8304 60.1321 66.2366 63.7258 61.8088 63.7258C57.381 63.7258 53.7873 60.1321 53.7873 55.7043ZM72.3492 63.8499C69.9596 66.9338 66.2782 68.9556 62.109 69.0484V69.0384H61.8088C57.5433 69.0384 53.7565 67.0205 51.3104 63.9026L54.2707 62.2013C56.0958 64.3254 58.797 65.6709 61.8088 65.6709C64.821 65.6709 67.5728 64.3 69.4012 62.1491L72.3492 63.8499Z" fill="#090909"/>
</svg>
