<svg width="81" height="80" viewBox="0 0 81 80" fill="none" xmlns="http://www.w3.org/2000/svg">
<path d="M57.5029 15.7046C57.5029 17.3936 56.2592 18.7627 54.7249 18.7627C53.1906 18.7627 51.9468 17.3936 51.9468 15.7046C51.9468 14.0157 53.1906 12.6465 54.7249 12.6465C56.2592 12.6465 57.5029 14.0157 57.5029 15.7046Z" fill="#FFE0BE"/>
<path d="M39.8922 19.2528C39.8922 20.9418 38.6484 22.3109 37.1142 22.3109C35.5799 22.3109 34.3361 20.9418 34.3361 19.2528C34.3361 17.5639 35.5799 16.1947 37.1142 16.1947C38.6484 16.1947 39.8922 17.5639 39.8922 19.2528Z" fill="#FFE0BE"/>
<path d="M52.6882 21.368H56.111V36.0418H52.6882V21.368Z" fill="#FFE0BE"/>
<path d="M35.4028 26.2425H38.8256V46.6757H35.4028V26.2425Z" fill="#FFE0BE"/>
<path d="M27.1418 34.204H30.5647V46.6754H27.1418V34.204Z" fill="#FFE0BE"/>
<path d="M47.3401 30.201H43.9172V46.6755L47.1331 41.2493L47.3401 30.201Z" fill="#FFE0BE"/>
<path d="M28.3109 30.5265C29.8452 30.5265 31.089 29.1573 31.089 27.4683C31.089 25.7794 29.8452 24.4102 28.3109 24.4102C26.7766 24.4102 25.5329 25.7794 25.5329 27.4683C25.5329 29.1573 26.7766 30.5265 28.3109 30.5265Z" fill="#FFE0BE"/>
<path d="M45.8073 26.8599C47.3416 26.8599 48.5854 25.4907 48.5854 23.8018C48.5854 22.1128 47.3416 20.7437 45.8073 20.7437C44.2731 20.7437 43.0293 22.1128 43.0293 23.8018C43.0293 25.4907 44.2731 26.8599 45.8073 26.8599Z" fill="#FFE0BE"/>
<path d="M59.4228 58.3073C62.5479 58.3073 65.0812 55.7739 65.0812 52.6488C65.0812 49.5237 62.5479 46.9904 59.4228 46.9904C56.2977 46.9904 53.7643 49.5237 53.7643 52.6488C53.7643 55.7739 56.2977 58.3073 59.4228 58.3073Z" fill="#FFE0BE"/>
<path fill-rule="evenodd" clip-rule="evenodd" d="M8.19238 23.7557C8.19238 20.0052 11.2327 16.9648 14.9832 16.9648C18.7337 16.9648 21.774 20.0052 21.774 23.7557C21.774 27.5061 18.7337 30.5465 14.9832 30.5465C11.2327 30.5465 8.19238 27.5061 8.19238 23.7557ZM13.9782 19.0704C11.8148 19.5322 10.1924 21.4545 10.1924 23.7557C10.1924 24.2515 10.2677 24.7297 10.4075 25.1796L13.9782 22.9588V19.0704ZM15.9782 19.0683C18.1466 19.5263 19.774 21.4509 19.774 23.7557C19.774 24.3134 19.6787 24.849 19.5034 25.3468L15.9782 22.9812V19.0683ZM18.458 27.0538L14.9576 24.7049L11.3896 26.924C12.2675 27.9189 13.5521 28.5465 14.9832 28.5465C16.3511 28.5465 17.585 27.9732 18.458 27.0538Z" fill="#090909"/>
<path fill-rule="evenodd" clip-rule="evenodd" d="M24.9978 27.3758C24.9978 25.5141 26.507 24.0049 28.3687 24.0049C30.2305 24.0049 31.7397 25.5141 31.7397 27.3758C31.7397 29.2375 30.2305 30.7468 28.3687 30.7468C26.507 30.7468 24.9978 29.2375 24.9978 27.3758ZM28.3687 26.0049C27.6116 26.0049 26.9978 26.6187 26.9978 27.3758C26.9978 28.133 27.6116 28.7468 28.3687 28.7468C29.1259 28.7468 29.7397 28.133 29.7397 27.3758C29.7397 26.6187 29.1259 26.0049 28.3687 26.0049Z" fill="#090909"/>
<path fill-rule="evenodd" clip-rule="evenodd" d="M36.9437 16.019C35.082 16.019 33.5728 17.5283 33.5728 19.39C33.5728 21.2517 35.082 22.7609 36.9437 22.7609C38.8054 22.7609 40.3146 21.2517 40.3146 19.39C40.3146 17.5283 38.8054 16.019 36.9437 16.019ZM35.5728 19.39C35.5728 18.6328 36.1865 18.019 36.9437 18.019C37.7008 18.019 38.3146 18.6328 38.3146 19.39C38.3146 20.1471 37.7008 20.7609 36.9437 20.7609C36.1865 20.7609 35.5728 20.1471 35.5728 19.39Z" fill="#090909"/>
<path fill-rule="evenodd" clip-rule="evenodd" d="M42.436 23.7557C42.436 21.894 43.9453 20.3848 45.807 20.3848C47.6687 20.3848 49.1779 21.894 49.1779 23.7557C49.1779 25.6174 47.6687 27.1267 45.807 27.1267C43.9453 27.1267 42.436 25.6174 42.436 23.7557ZM45.807 22.3848C45.0498 22.3848 44.436 22.9986 44.436 23.7557C44.436 24.5129 45.0498 25.1267 45.807 25.1267C46.5641 25.1267 47.1779 24.5129 47.1779 23.7557C47.1779 22.9986 46.5641 22.3848 45.807 22.3848Z" fill="#090909"/>
<path fill-rule="evenodd" clip-rule="evenodd" d="M54.7296 12.2271C52.8679 12.2271 51.3586 13.7363 51.3586 15.598C51.3586 17.4597 52.8679 18.9689 54.7296 18.9689C56.5913 18.9689 58.1005 17.4597 58.1005 15.598C58.1005 13.7363 56.5913 12.2271 54.7296 12.2271ZM53.3586 15.598C53.3586 14.8408 53.9724 14.2271 54.7296 14.2271C55.4867 14.2271 56.1005 14.8408 56.1005 15.598C56.1005 16.3551 55.4867 16.9689 54.7296 16.9689C53.9724 16.9689 53.3586 16.3551 53.3586 15.598Z" fill="#090909"/>
<path d="M8.19238 32.6934C8.19238 32.1411 8.6401 31.6934 9.19238 31.6934H15.6742C16.2265 31.6934 16.6742 32.1411 16.6742 32.6934C16.6742 33.2456 16.2265 33.6934 15.6742 33.6934H9.19238C8.6401 33.6934 8.19238 33.2456 8.19238 32.6934Z" fill="#090909"/>
<path d="M9.19238 34.3628C8.6401 34.3628 8.19238 34.8105 8.19238 35.3628C8.19238 35.9151 8.6401 36.3628 9.19238 36.3628H17.4928C18.0451 36.3628 18.4928 35.9151 18.4928 35.3628C18.4928 34.8105 18.0451 34.3628 17.4928 34.3628H9.19238Z" fill="#090909"/>
<path d="M8.19238 38.0332C8.19238 37.4809 8.6401 37.0332 9.19238 37.0332H17.4928C18.0451 37.0332 18.4928 37.4809 18.4928 38.0332C18.4928 38.5855 18.0451 39.0332 17.4928 39.0332H9.19238C8.6401 39.0332 8.19238 38.5855 8.19238 38.0332Z" fill="#090909"/>
<path fill-rule="evenodd" clip-rule="evenodd" d="M59.4604 45.334C55.524 45.334 52.333 48.525 52.333 52.4614C52.333 56.3977 55.524 59.5888 59.4604 59.5888C63.3967 59.5888 66.5878 56.3977 66.5878 52.4614C66.5878 48.525 63.3967 45.334 59.4604 45.334ZM54.3207 52.4614C54.3207 49.6228 56.6218 47.3217 59.4604 47.3217C62.299 47.3217 64.6001 49.6228 64.6001 52.4614C64.6001 55.2999 62.299 57.6011 59.4604 57.6011C56.6218 57.6011 54.3207 55.2999 54.3207 52.4614Z" fill="#090909"/>
<path fill-rule="evenodd" clip-rule="evenodd" d="M9.95 10C7.20217 10 4.97461 12.2276 4.97461 14.9754V54.179C4.97461 56.9268 7.20216 59.1544 9.95 59.1544H43.3335C45.9592 65.4737 52.1908 69.9174 59.4604 69.9174C69.1011 69.9174 76.9165 62.1021 76.9165 52.4614C76.9165 45.1527 72.4248 38.8931 66.0512 36.2925V14.9754C66.0512 12.2276 63.8237 10 61.0758 10H9.95ZM64.0512 35.6153V14.9754C64.0512 13.3321 62.7191 12 61.0758 12H9.95C8.30674 12 6.97461 13.3321 6.97461 14.9754V54.179C6.97461 55.8223 8.30674 57.1544 9.95 57.1544H42.6425C42.2267 55.6611 42.0044 54.0872 42.0044 52.4614C42.0044 50.919 42.2044 49.4234 42.58 47.999H23.0127C22.4604 47.999 22.0127 47.5513 22.0127 46.999C22.0127 46.4467 22.4604 45.999 23.0127 45.999H25.3115V32.5098H31.7838V45.999H33.7078V24.7393H40.1801V45.999H42.5708V28.5576H49.0431V38.4532C49.8134 37.8794 50.6326 37.3677 51.4934 36.9254V20.3848H57.9657V35.0685C58.4584 35.0267 58.9569 35.0054 59.4604 35.0054C61.0492 35.0054 62.5884 35.2176 64.0512 35.6153ZM38.1801 45.999V26.7393H35.7078V45.999H38.1801ZM29.7838 45.999V34.5098H27.3115V45.999H29.7838ZM53.4934 22.3848V36.0518C54.2919 35.7614 55.1177 35.5276 55.9657 35.3553V22.3848H53.4934ZM47.0431 40.1926C46.104 41.143 45.2732 42.2007 44.5708 43.3456V30.5576H47.0431V40.1926ZM58.4604 37.0372C50.6522 37.5358 44.4206 43.8323 44.0244 51.668H46.5926C46.9823 45.2489 52.069 40.0979 58.4604 39.6076V37.0372ZM58.4604 67.8856C50.7899 67.3958 44.6409 61.3108 44.0508 53.668H46.6243C47.2022 59.8936 52.2069 64.8352 58.4604 65.315V67.8856ZM60.4604 67.8856C68.1309 67.3958 74.2799 61.3108 74.87 53.668H72.2967C71.7188 59.8937 66.7141 64.8353 60.4604 65.315V67.8856ZM60.4604 37.0372C68.2686 37.5358 74.5002 43.8323 74.8964 51.668H72.3285C71.9388 45.2488 66.8519 40.0978 60.4604 39.6075V37.0372ZM48.5686 52.4613C48.5686 46.4458 53.4451 41.5693 59.4605 41.5693C65.476 41.5693 70.3525 46.4458 70.3525 52.4613C70.3525 58.4767 65.476 63.3532 59.4605 63.3532C53.4451 63.3532 48.5686 58.4767 48.5686 52.4613Z" fill="#090909"/>
</svg>
