<svg width="81" height="80" viewBox="0 0 81 80" fill="none" xmlns="http://www.w3.org/2000/svg">
<path d="M6.04102 45.3867H75.9085V53.595C75.9085 55.8041 74.1177 57.595 71.9085 57.595H10.041C7.83188 57.595 6.04102 55.8041 6.04102 53.595V45.3867Z" fill="#FFE0BE"/>
<path d="M40.884 53.644C41.9885 53.644 42.884 52.7486 42.884 51.644C42.884 50.5395 41.9885 49.644 40.884 49.644C39.7794 49.644 38.884 50.5395 38.884 51.644C38.884 52.7486 39.7794 53.644 40.884 53.644Z" fill="#090909"/>
<path fill-rule="evenodd" clip-rule="evenodd" d="M4.88397 14.0916C4.88397 11.7229 6.80415 9.80273 9.17282 9.80273H72.7765C75.1451 9.80273 77.0653 11.7229 77.0653 14.0916V54.4109C77.0653 56.7795 75.1451 58.6997 72.7765 58.6997H50.7717L55.449 68.1625H60.9375C61.4897 68.1625 61.9375 68.6102 61.9375 69.1625C61.9375 69.7148 61.4897 70.1625 60.9375 70.1625H55.1024C54.9303 70.2086 54.7529 70.2066 54.5872 70.1625H27.6407C27.475 70.2066 27.2976 70.2086 27.1255 70.1625H21.5766C21.0243 70.1625 20.5766 69.7148 20.5766 69.1625C20.5766 68.6102 21.0243 68.1625 21.5766 68.1625H26.7789L31.4562 58.6997H9.17281C6.80415 58.6997 4.88397 56.7795 4.88397 54.4109V14.0916ZM9.17282 11.8027H72.7765C74.0406 11.8027 75.0653 12.8275 75.0653 14.0916V44.537H6.88397V14.0916C6.88397 12.8275 7.90872 11.8027 9.17282 11.8027ZM6.88397 46.537V54.4109C6.88397 55.675 7.90872 56.6997 9.17281 56.6997H72.7765C74.0406 56.6997 75.0653 55.675 75.0653 54.4109V46.537H6.88397ZM48.5408 58.6997L53.218 68.1625H29.0099L33.6871 58.6997H48.5408Z" fill="#090909"/>
</svg>
