<svg width="80" height="80" viewBox="0 0 80 80" fill="none" xmlns="http://www.w3.org/2000/svg">
<path d="M5.06641 45.3867H74.9339V53.595C74.9339 55.8041 73.1431 57.595 70.9339 57.595H9.06641C6.85727 57.595 5.06641 55.8041 5.06641 53.595V45.3867Z" fill="#FFE0BE"/>
<path d="M39.9093 53.644C41.0139 53.644 41.9093 52.7486 41.9093 51.644C41.9093 50.5395 41.0139 49.644 39.9093 49.644C38.8048 49.644 37.9093 50.5395 37.9093 51.644C37.9093 52.7486 38.8048 53.644 39.9093 53.644Z" fill="#090909"/>
<path fill-rule="evenodd" clip-rule="evenodd" d="M3.90933 14.0916C3.90933 11.7229 5.82951 9.80273 8.19818 9.80273H71.8018C74.1705 9.80273 76.0907 11.7229 76.0907 14.0916V54.4109C76.0907 56.7795 74.1705 58.6997 71.8018 58.6997H49.7971L54.4744 68.1625H59.9628C60.5151 68.1625 60.9628 68.6102 60.9628 69.1625C60.9628 69.7148 60.5151 70.1625 59.9628 70.1625H54.1277C53.9557 70.2086 53.7782 70.2066 53.6126 70.1625H26.666C26.5004 70.2066 26.3229 70.2086 26.1509 70.1625H20.602C20.0497 70.1625 19.602 69.7148 19.602 69.1625C19.602 68.6102 20.0497 68.1625 20.602 68.1625H25.8042L30.4815 58.6997H8.19817C5.82951 58.6997 3.90933 56.7795 3.90933 54.4109V14.0916ZM8.19818 11.8027H71.8018C73.0659 11.8027 74.0907 12.8275 74.0907 14.0916V44.537H5.90933V14.0916C5.90933 12.8275 6.93408 11.8027 8.19818 11.8027ZM5.90933 46.537V54.4109C5.90933 55.675 6.93408 56.6997 8.19817 56.6997H71.8018C73.0659 56.6997 74.0907 55.675 74.0907 54.4109V46.537H5.90933ZM47.5661 58.6997L52.2434 68.1625H28.0352L32.7125 58.6997H47.5661Z" fill="#090909"/>
</svg>
