<svg width="80" height="80" viewBox="0 0 80 80" fill="none" xmlns="http://www.w3.org/2000/svg">
<path fill-rule="evenodd" clip-rule="evenodd" d="M61.9074 51.8304C64.592 49.6965 66.3132 46.4027 66.3132 42.7069C66.3132 36.2737 61.0981 31.0586 54.6649 31.0586C48.2317 31.0586 43.0166 36.2737 43.0166 42.7069C43.0166 46.4027 44.7378 49.6965 47.4224 51.8304H61.9074ZM56.3574 50.5249C56.9848 50.0262 57.3871 49.2564 57.3871 48.3927C57.3871 46.8893 56.1683 45.6706 54.6649 45.6706C53.1615 45.6706 51.9427 46.8893 51.9427 48.3927C51.9427 49.2564 52.345 50.0262 52.9723 50.5249H56.3574Z" fill="#FFE0BE"/>
<path d="M12.7518 50.7197C12.1995 50.7197 11.7518 51.1674 11.7518 51.7197C11.7518 52.272 12.1995 52.7197 12.7518 52.7197H33.6472C34.1995 52.7197 34.6472 52.272 34.6472 51.7197C34.6472 51.1674 34.1995 50.7197 33.6472 50.7197H32.0712V32.2498C32.0712 31.6975 31.6235 31.2498 31.0712 31.2498C30.5189 31.2498 30.0712 31.6975 30.0712 32.2498V50.7197H28.1503V36.7817C28.1503 36.2295 27.7026 35.7817 27.1503 35.7817C26.598 35.7817 26.1503 36.2295 26.1503 36.7817V50.7197H24.2294V41.6956C24.2294 41.1433 23.7817 40.6956 23.2294 40.6956C22.6771 40.6956 22.2294 41.1433 22.2294 41.6956V50.7197H20.3085V45.8936C20.3085 45.3413 19.8608 44.8936 19.3085 44.8936C18.7562 44.8936 18.3085 45.3413 18.3085 45.8936V50.7197H16.3876V37.6357C16.3876 37.0835 15.9399 36.6357 15.3876 36.6357C14.8353 36.6357 14.3876 37.0835 14.3876 37.6357V50.7197H12.7518Z" fill="#090909"/>
<path fill-rule="evenodd" clip-rule="evenodd" d="M45.7348 52.7391H63.6101C66.2204 50.3304 67.8553 46.8804 67.8553 43.0485C67.8553 35.7678 61.9532 29.8657 54.6725 29.8657C47.3918 29.8657 41.4896 35.7678 41.4896 43.0485C41.4896 46.8804 43.1245 50.3304 45.7348 52.7391ZM43.4896 43.0485C43.4896 36.8724 48.4964 31.8657 54.6725 31.8657C60.8486 31.8657 65.8553 36.8724 65.8553 43.0485C65.8553 46.0279 64.6924 48.7331 62.7911 50.7391H58.7508C58.9162 50.2802 59.0063 49.7854 59.0063 49.2695C59.0063 47.8738 58.3466 46.6322 57.322 45.8395L60.9282 39.3284C61.1958 38.8452 61.021 38.2366 60.5379 37.9691C60.0547 37.7015 59.4462 37.8762 59.1786 38.3594L55.4934 45.0132C55.2275 44.9622 54.953 44.9355 54.6723 44.9355C52.2787 44.9355 50.3383 46.8759 50.3383 49.2695C50.3383 49.7854 50.4284 50.2802 50.5938 50.7391H46.5539C44.6526 48.7331 43.4896 46.0279 43.4896 43.0485ZM54.6723 46.9355C53.3832 46.9355 52.3383 47.9805 52.3383 49.2695C52.3383 49.7029 52.4553 50.1077 52.6611 50.4554H56.6835C56.8893 50.1077 57.0063 49.7029 57.0063 49.2695C57.0063 47.9805 55.9613 46.9355 54.6723 46.9355Z" fill="#090909"/>
<path fill-rule="evenodd" clip-rule="evenodd" d="M6.96082 18.3643V56.3578H5.85061C4.82578 56.3578 3.995 57.1886 3.995 58.2134C3.995 62.3127 7.31814 65.6359 11.4175 65.6359H68.5825C72.6818 65.6359 76.005 62.3127 76.005 58.2134C76.005 57.1886 75.1742 56.3578 74.1494 56.3578H72.9608V18.3643C72.9608 16.1551 71.17 14.3643 68.9608 14.3643H10.9608C8.75168 14.3643 6.96082 16.1551 6.96082 18.3643ZM10.9608 16.3643H68.9608C70.0654 16.3643 70.9608 17.2597 70.9608 18.3643V20.8259H8.96082V18.3643C8.96082 17.2597 9.85625 16.3643 10.9608 16.3643ZM8.96082 22.8259V56.3578H70.9608V22.8259H8.96082ZM5.99688 58.3578H6.96082V58.3643H72.9608V58.3578H74.0031C73.9266 61.2858 71.529 63.6359 68.5825 63.6359H11.4175C8.47099 63.6359 6.07342 61.2858 5.99688 58.3578Z" fill="#090909"/>
</svg>
