<svg width="80" height="80" viewBox="0 0 80 80" fill="none" xmlns="http://www.w3.org/2000/svg">
<path fill-rule="evenodd" clip-rule="evenodd" d="M37.8684 35.8984C37.5922 35.8984 37.3682 36.1224 37.3682 36.3987V57.7112C37.3682 57.9874 37.5922 58.2114 37.8684 58.2114H42.3263C42.6026 58.2114 42.8265 57.9874 42.8265 57.7112V36.3987C42.8265 36.1224 42.6026 35.8984 42.3263 35.8984H37.8684ZM29.0866 39.8206C29.0866 39.5444 29.3105 39.3204 29.5868 39.3204H34.0447C34.3209 39.3204 34.5449 39.5444 34.5449 39.8206V57.7112C34.5449 57.9874 34.3209 58.2114 34.0447 58.2114H29.5868C29.3105 58.2114 29.0866 57.9874 29.0866 57.7112V39.8206ZM21.3051 45.0137C21.0289 45.0137 20.8049 45.2377 20.8049 45.5139V57.7112C20.8049 57.9874 21.0289 58.2114 21.3051 58.2114H25.763C26.0393 58.2114 26.2632 57.9874 26.2632 57.7112V45.5139C26.2632 45.2377 26.0393 45.0137 25.763 45.0137H21.3051ZM12.9236 49.2388C12.6473 49.2388 12.4233 49.4627 12.4233 49.739V57.7112C12.4233 57.9874 12.6473 58.2114 12.9236 58.2114H17.3814C17.6577 58.2114 17.8817 57.9874 17.8817 57.7112V49.739C17.8817 49.4627 17.6577 49.2388 17.3814 49.2388H12.9236Z" fill="#FFE0BE"/>
<path fill-rule="evenodd" clip-rule="evenodd" d="M38.4256 34.127C37.1015 34.127 36.0217 35.2067 36.0217 36.5308V56.716C36.0217 58.0401 37.1015 59.1198 38.4256 59.1198H41.5013C42.8254 59.1198 43.9052 58.0401 43.9052 56.716V36.5308C43.9052 35.2067 42.8254 34.127 41.5013 34.127H38.4256ZM37.9535 36.5308C37.9535 36.2705 38.1653 36.0587 38.4256 36.0587H41.5013C41.7616 36.0587 41.9734 36.2705 41.9734 36.5308V56.716C41.9734 56.9763 41.7616 57.1881 41.5013 57.1881H38.4256C38.1653 57.1881 37.9535 56.9763 37.9535 56.716V36.5308Z" fill="#090909"/>
<path fill-rule="evenodd" clip-rule="evenodd" d="M30.2771 37.7221C28.9529 37.7221 27.8732 38.8019 27.8732 40.126V56.8094C27.8732 58.1335 28.9529 59.2132 30.2771 59.2132H33.3528C34.6769 59.2132 35.7567 58.1335 35.7567 56.8094V40.126C35.7567 38.8019 34.6769 37.7221 33.3528 37.7221H30.2771ZM29.805 40.126C29.805 39.8657 30.0168 39.6539 30.2771 39.6539H33.3528C33.6131 39.6539 33.8249 39.8657 33.8249 40.126V56.8094C33.8249 57.0697 33.6131 57.2815 33.3528 57.2815H30.2771C30.0168 57.2815 29.805 57.0697 29.805 56.8094V40.126Z" fill="#090909"/>
<path fill-rule="evenodd" clip-rule="evenodd" d="M21.9955 43.4341C20.6713 43.4341 19.5916 44.5138 19.5916 45.838V57.009C19.5916 58.3332 20.6713 59.4129 21.9955 59.4129H25.0712C26.3953 59.4129 27.475 58.3332 27.475 57.009V45.838C27.475 44.5138 26.3953 43.4341 25.0712 43.4341H21.9955ZM21.5233 45.8247C21.5233 45.5643 21.7352 45.3525 21.9955 45.3525H25.0712C25.3315 45.3525 25.5433 45.5643 25.5433 45.8247V56.9957C25.5433 57.256 25.3315 57.4678 25.0712 57.4678H21.9955C21.7352 57.4678 21.5233 57.256 21.5233 56.9957V45.8247Z" fill="#090909"/>
<path fill-rule="evenodd" clip-rule="evenodd" d="M13.7134 47.8012C12.3892 47.8012 11.3095 48.8809 11.3095 50.2051V56.9956C11.3095 58.3197 12.3892 59.3995 13.7134 59.3995H16.7891C18.1132 59.3995 19.1929 58.3197 19.1929 56.9956V50.2051C19.1929 48.8809 18.1132 47.8012 16.7891 47.8012H13.7134ZM13.2412 50.2051C13.2412 49.9448 13.453 49.733 13.7134 49.733H16.7891C17.0494 49.733 17.2612 49.9448 17.2612 50.2051V56.9956C17.2612 57.2559 17.0494 57.4677 16.7891 57.4677H13.7134C13.453 57.4677 13.2412 57.2559 13.2412 56.9956V50.2051Z" fill="#090909"/>
<path d="M9.63914 16.4718C9.10057 16.4718 8.67327 16.8991 8.67327 17.4377C8.67327 17.9762 9.10057 18.4035 9.63914 18.4035H11.2902C11.8287 18.4035 12.256 17.9762 12.256 17.4377C12.256 16.8991 11.8287 16.4718 11.2902 16.4718H9.63914Z" fill="#090909"/>
<path d="M13.78 16.4718C13.2414 16.4718 12.8141 16.8991 12.8141 17.4377C12.8141 17.9762 13.2414 18.4035 13.78 18.4035H30.0772C30.6158 18.4035 31.0431 17.9762 31.0431 17.4377C31.0431 16.8991 30.6158 16.4718 30.0772 16.4718H13.78Z" fill="#090909"/>
<path d="M9.63914 20.3331C9.10057 20.3331 8.67327 20.7604 8.67327 21.2989C8.67327 21.8375 9.10057 22.2648 9.63914 22.2648H11.2902C11.8287 22.2648 12.256 21.8375 12.256 21.2989C12.256 20.7604 11.8287 20.3331 11.2902 20.3331H9.63914Z" fill="#090909"/>
<path d="M13.78 20.3331C13.2414 20.3331 12.8141 20.7604 12.8141 21.2989C12.8141 21.8375 13.2414 22.2648 13.78 22.2648H30.0772C30.6158 22.2648 31.0431 21.8375 31.0431 21.2989C31.0431 20.7604 30.6158 20.3331 30.0772 20.3331H13.78Z" fill="#090909"/>
<path d="M9.63914 24.2078C9.10057 24.2078 8.67327 24.6351 8.67327 25.1736C8.67327 25.7122 9.10057 26.1395 9.63914 26.1395H11.2902C11.8287 26.1395 12.256 25.7122 12.256 25.1736C12.256 24.6351 11.8287 24.2078 11.2902 24.2078H9.63914Z" fill="#090909"/>
<path d="M13.78 24.2078C13.2414 24.2078 12.8141 24.6351 12.8141 25.1736C12.8141 25.7122 13.2414 26.1395 13.78 26.1395H30.0772C30.6158 26.1395 31.0431 25.7122 31.0431 25.1736C31.0431 24.6351 30.6158 24.2078 30.0772 24.2078H13.78Z" fill="#090909"/>
<path d="M9.63914 28.069C9.10057 28.069 8.67327 28.4963 8.67327 29.0349C8.67327 29.5735 9.10057 30.0008 9.63914 30.0008H11.2902C11.8287 30.0008 12.256 29.5735 12.256 29.0349C12.256 28.4963 11.8287 28.069 11.2902 28.069H9.63914Z" fill="#090909"/>
<path d="M13.78 28.069C13.2414 28.069 12.8141 28.4963 12.8141 29.0349C12.8141 29.5735 13.2414 30.0008 13.78 30.0008H30.0772C30.6158 30.0008 31.0431 29.5735 31.0431 29.0349C31.0431 28.4963 30.6158 28.069 30.0772 28.069H13.78Z" fill="#090909"/>
<path d="M9.63914 31.9301C9.10057 31.9301 8.67327 32.3574 8.67327 32.8959C8.67327 33.4345 9.10057 33.8618 9.63914 33.8618H11.2902C11.8287 33.8618 12.256 33.4345 12.256 32.8959C12.256 32.3574 11.8287 31.9301 11.2902 31.9301H9.63914Z" fill="#090909"/>
<path d="M13.78 31.9301C13.2414 31.9301 12.8141 32.3574 12.8141 32.8959C12.8141 33.4345 13.2414 33.8618 13.78 33.8618H30.0772C30.6158 33.8618 31.0431 33.4345 31.0431 32.8959C31.0431 32.3574 30.6158 31.9301 30.0772 31.9301H13.78Z" fill="#090909"/>
<path fill-rule="evenodd" clip-rule="evenodd" d="M60.8478 50.3445C57.8859 50.3445 55.4747 52.7557 55.4747 55.7175C55.4747 58.6794 57.8859 61.0906 60.8478 61.0906C63.8096 61.0906 66.2208 58.6794 66.2208 55.7175C66.2208 52.7557 63.8096 50.3445 60.8478 50.3445ZM57.4065 55.7175C57.4065 53.8195 58.9498 52.2762 60.8478 52.2762C62.7458 52.2762 64.2891 53.8195 64.2891 55.7175C64.2891 57.6156 62.7458 59.1588 60.8478 59.1588C58.9498 59.1588 57.4065 57.6156 57.4065 55.7175Z" fill="#090909"/>
<path fill-rule="evenodd" clip-rule="evenodd" d="M65.6009 9.01562C63.7821 9.01562 62.1768 9.93005 61.2074 11.3191H10.0252C6.71717 11.3191 4.02637 14.0099 4.02637 17.3179V57.1289C4.02637 60.437 6.71717 63.1278 10.0252 63.1278H47.4883C50.0937 67.8081 55.0981 70.9835 60.8342 70.9835C69.2551 70.9835 76.1001 64.1385 76.1001 55.7176C76.1001 49.9868 72.9306 44.9862 68.2444 42.3789V19.0398C69.8608 18.1148 70.9739 16.3864 70.9739 14.3887C70.9739 11.4268 68.5627 9.01562 65.6009 9.01562ZM63.2258 11.9288C63.8521 11.327 64.6841 10.9607 65.6142 10.9607C67.5122 10.9607 69.0555 12.504 69.0555 14.402C69.0555 15.4742 68.5444 16.4296 67.7564 17.0705C67.3999 17.353 66.9839 17.5724 66.5345 17.6939L66.5288 17.6955C66.226 17.7838 65.9228 17.8433 65.6009 17.8433C63.7028 17.8433 62.1596 16.3 62.1596 14.402C62.1596 13.9394 62.2567 13.499 62.4297 13.0788C62.6136 12.6377 62.8822 12.248 63.2221 11.9324L63.2258 11.9288ZM5.95811 17.3179C5.95811 15.0737 7.781 13.2508 10.0252 13.2508H60.3782C60.2949 13.6108 60.2411 13.9906 60.2411 14.3887C60.2411 15.3481 60.503 16.2348 60.9367 17.004L55.7431 22.1976C55.3732 22.0245 54.9658 21.9176 54.523 21.9176C54.0284 21.9176 53.5589 22.047 53.1497 22.2574L51.424 20.5317C51.6427 20.1204 51.7608 19.6575 51.7608 19.1553C51.7608 17.5117 50.4281 16.1789 48.7844 16.1789C47.1407 16.1789 45.808 17.5117 45.808 19.1553C45.808 19.5682 45.902 19.957 46.0525 20.3044L41.0998 25.2571C40.6584 24.9999 40.1451 24.8468 39.5972 24.8468C37.9535 24.8468 36.6208 26.1795 36.6208 27.8232C36.6208 29.4669 37.9535 30.7996 39.5972 30.7996C41.239 30.7996 42.5869 29.4689 42.5869 27.8232C42.5869 27.4234 42.503 27.0571 42.365 26.7181L47.337 21.7461C47.7701 21.9893 48.2701 22.1184 48.7977 22.1184C49.2397 22.1184 49.6567 22.0119 50.0308 21.8381L51.8269 23.6343C51.6532 24.0083 51.5466 24.4253 51.5466 24.8674C51.5466 26.5111 52.8793 27.8438 54.523 27.8438C56.1667 27.8438 57.4994 26.5111 57.4994 24.8674C57.4994 24.3613 57.3699 23.8986 57.1499 23.4905L62.1788 18.4615C63.106 19.2364 64.2915 19.7218 65.6009 19.7218C65.8443 19.7218 66.0804 19.7033 66.3127 19.6707V41.4133C64.608 40.7582 62.7673 40.3984 60.8342 40.3984C52.4133 40.3984 45.5683 47.2434 45.5683 55.6643C45.5683 57.5959 45.9275 59.4471 46.5821 61.1428H9.72507V61.1851C7.62071 61.0312 5.95811 59.2722 5.95811 57.1289V17.3179ZM47.7397 19.182C47.7397 18.6021 48.2045 18.1373 48.7844 18.1373C49.3642 18.1373 49.829 18.6021 49.829 19.182C49.829 19.7618 49.3642 20.2266 48.7844 20.2266C48.2045 20.2266 47.7397 19.7618 47.7397 19.182ZM53.4784 24.9206C53.4784 24.3408 53.9432 23.876 54.523 23.876C55.1029 23.876 55.5677 24.3408 55.5677 24.9206C55.5677 25.5005 55.1029 25.9653 54.523 25.9653C53.9432 25.9653 53.4784 25.5005 53.4784 24.9206ZM38.5392 27.8499C38.5392 27.27 39.004 26.8052 39.5839 26.8052C40.1676 26.8052 40.6419 27.2738 40.6419 27.8499C40.6419 28.4259 40.1676 28.8945 39.5839 28.8945C39.004 28.8945 38.5392 28.4297 38.5392 27.8499ZM49.2528 62.2856C48.1898 60.4183 47.5426 58.2845 47.4902 56.0044H47.5001V55.7043C47.5001 48.5551 53.1691 42.7079 60.2411 42.3935V45.7776C55.0234 46.0892 50.8809 50.4196 50.8809 55.7043C50.8809 57.4896 51.3564 59.153 52.18 60.6016L49.2528 62.2856ZM72.4423 62.2057L69.5284 60.5294C70.3254 59.097 70.7875 57.4616 70.7875 55.7043C70.7875 50.6741 67.0271 46.5071 62.1729 45.8391V42.4376C68.895 43.1112 74.1684 48.7963 74.1684 55.691C74.1684 58.0589 73.536 60.2836 72.4423 62.2057ZM52.8126 55.7043C52.8126 51.2765 56.4064 47.6827 60.8342 47.6827C65.262 47.6827 68.8558 51.2765 68.8558 55.7043C68.8558 60.1321 65.262 63.7258 60.8342 63.7258C56.4064 63.7258 52.8126 60.1321 52.8126 55.7043ZM71.3746 63.8499C68.985 66.9338 65.3036 68.9556 61.1343 69.0484V69.0384H60.8342C56.5687 69.0384 52.7819 67.0205 50.3358 63.9026L53.2961 62.2013C55.1212 64.3254 57.8223 65.6709 60.8342 65.6709C63.8464 65.6709 66.5982 64.3 68.4266 62.1491L71.3746 63.8499Z" fill="#090909"/>
</svg>
