<svg width="81" height="80" viewBox="0 0 81 80" fill="none" xmlns="http://www.w3.org/2000/svg">
<path d="M40.5789 31.6769V17.9355C23.8723 19.4645 25.2887 35.6818 30.4584 41.7014C30.4584 41.7014 38.0642 48.544 45.9773 45.091C53.8904 41.638 54.9746 31.6769 54.9746 31.6769H40.5789Z" fill="#FFE0BE"/>
<path fill-rule="evenodd" clip-rule="evenodd" d="M44.1566 7.87305C43.9647 7.87305 43.8091 8.02864 43.8091 8.22057V28.4816C43.8091 28.6736 43.9647 28.8292 44.1566 28.8292L50.3239 28.8293C50.3302 28.8297 50.3365 28.8298 50.3429 28.8298L63.6037 28.8292C63.6484 28.8292 63.6912 28.8207 63.7304 28.8053L64.3714 28.7541C64.552 28.7396 64.6912 28.5888 64.6912 28.4076V27.6676C64.6912 16.7608 55.8187 7.87305 44.8966 7.87305H44.1566ZM45.9841 26.6541V10.0812C54.8544 10.6284 61.9805 17.7699 62.4848 26.6541H58.6231V17.9741C58.6231 17.7822 58.4675 17.6266 58.2755 17.6266H53.5692C53.3772 17.6266 53.2216 17.7822 53.2216 17.9741V21.8152H52.1705V13.6967C52.1705 13.5048 52.0149 13.3492 51.8229 13.3492H47.1166C46.9247 13.3492 46.7691 13.5048 46.7691 13.6967V26.6541H45.9841ZM48.9441 26.6541V15.5242H49.9954L49.9953 26.6541H48.9441ZM55.3968 26.6541L55.3967 19.8016H56.448V26.6541H55.3968ZM52.1705 26.6541V23.9903H53.2216V26.6541H52.1705Z" fill="#090909"/>
<path fill-rule="evenodd" clip-rule="evenodd" d="M40.9302 11.7509C30.0081 11.7509 21.1356 20.6386 21.1356 31.5455C21.1356 34.6214 21.8606 37.5338 23.1188 40.1355V48.0622C23.1188 49.0247 22.3272 49.8163 21.3647 49.8163H12.4767C12.101 48.1857 10.6654 46.9599 8.91798 46.9599C6.89086 46.9599 5.24048 48.6103 5.24048 50.6374C5.24048 52.6645 6.89086 54.3149 8.91798 54.3149C10.4661 54.3149 11.7763 53.3493 12.315 51.9913H21.3647C23.5241 51.9913 25.2938 50.2383 25.2938 48.0622V43.6585C25.8544 44.377 26.4632 45.0535 27.1147 45.6928V55.2698C27.1147 56.2322 26.3231 57.0238 25.3607 57.0238H18.5468C18.2466 55.3001 16.7636 53.9751 14.9415 53.9751C12.9144 53.9751 11.264 55.6254 11.264 57.6526C11.264 59.6797 12.9144 61.3301 14.9415 61.3301C16.4137 61.3301 17.6756 60.4512 18.2633 59.1989H25.3459C27.5053 59.1989 29.275 57.4458 29.275 55.2698V47.5324C30.0357 48.087 30.8373 48.5896 31.6731 49.0404V61.7225C31.6731 62.685 30.8815 63.4766 29.919 63.4766H26.971C26.5539 61.9042 25.1203 60.7534 23.4367 60.7534C21.4096 60.7534 19.7592 62.4038 19.7592 64.4309C19.7592 66.458 21.4096 68.1084 23.4367 68.1084C25.0315 68.1084 26.3722 67.0844 26.8862 65.6664H29.9338C32.0932 65.6664 33.8629 63.9134 33.8629 61.7373V50.0522C34.3662 50.2425 34.8779 50.4123 35.4027 50.5614V66.9765C35.4027 69.9367 37.8085 72.3264 40.7526 72.3264C43.6973 72.3264 46.1025 69.9212 46.1025 66.9765V50.6537C46.7732 50.4737 47.4388 50.2667 48.0862 50.0154V61.7225C48.0862 63.8819 49.8392 65.6516 52.0153 65.6516H55.0606C55.563 67.0719 56.9061 68.0936 58.5125 68.0936C60.5396 68.0936 62.19 66.4432 62.19 64.4161C62.19 62.389 60.5396 60.7386 58.5125 60.7386C56.8135 60.7386 55.3946 61.9036 54.9786 63.4618H52.0301C51.0676 63.4618 50.276 62.6702 50.276 61.7077V48.981C51.1125 48.5287 51.914 48.0168 52.6742 47.4519V55.255C52.6742 57.4144 54.4272 59.1841 56.6033 59.1841H63.6859C64.2735 60.4364 65.5355 61.3153 67.0076 61.3153C69.0347 61.3153 70.6851 59.6649 70.6851 57.6378C70.6851 55.6106 69.0347 53.9603 67.0076 53.9603C65.2004 53.9603 63.7042 55.2845 63.4025 57.009H56.5885C55.626 57.009 54.8344 56.2174 54.8344 55.255V45.5891C55.487 44.9473 56.0956 44.2559 56.6553 43.5249V48.0326C56.6553 50.192 58.4084 51.9617 60.5844 51.9617H69.635C70.1737 53.3059 71.482 54.2853 73.0312 54.2853C75.0583 54.2853 76.7087 52.6349 76.7087 50.6078C76.7087 48.5807 75.0583 46.9303 73.0312 46.9303C72.9791 46.9303 72.9286 46.942 72.883 46.9635C71.2118 47.0369 69.8388 48.2339 69.485 49.8163H60.5992C59.6368 49.8163 58.8452 49.0247 58.8452 48.0622V39.9409C60.044 37.3852 60.7396 34.5474 60.7396 31.5455C60.7396 31.4737 60.7178 31.4069 60.6804 31.3515V30.8795C60.6804 30.6876 60.5248 30.532 60.3329 30.532H42.0177V12.1429C42.0177 11.9509 41.8621 11.7953 41.6702 11.7953H41.1003C41.05 11.7671 40.992 11.7509 40.9302 11.7509ZM25.1724 39.3772C25.2361 39.4318 25.2798 39.5091 25.291 39.5965C25.9719 40.9099 26.8107 42.1259 27.7853 43.2222L29.6635 41.3439C27.3711 38.7103 25.9751 35.2915 25.9751 31.5307C25.9751 23.6413 32.104 17.1823 39.8575 16.6258V13.9741C30.6357 14.5464 23.3106 22.1915 23.3106 31.5455C23.3106 34.3619 23.9866 37.0231 25.1724 39.3772ZM28.1354 31.5455C28.1354 24.8563 33.3006 19.373 39.8427 18.8203V31.1648L31.1933 39.8141C29.2901 37.5862 28.1354 34.6986 28.1354 31.5455ZM40.945 46.5154C48.8047 46.5154 55.2632 40.4161 55.8486 32.6923H58.5152C57.9139 41.8696 50.2839 49.1651 40.945 49.1651C36.4901 49.1651 32.4321 47.4945 29.3288 44.7631L31.2073 42.8847C33.8259 45.1341 37.2283 46.5154 40.945 46.5154ZM32.7522 41.3545L41.3997 32.7071H53.6684C53.087 39.219 47.6049 44.3551 40.945 44.3551C37.8215 44.3551 34.9767 43.2285 32.7522 41.3545ZM7.41552 50.6226C7.41552 49.7933 8.08872 49.1201 8.91798 49.1201C9.74724 49.1201 10.4204 49.7933 10.4204 50.6226C10.4204 51.4519 9.74724 52.1251 8.91798 52.1251C8.08872 52.1251 7.41552 51.4519 7.41552 50.6226ZM71.5435 50.6226C71.5435 49.7934 72.2167 49.1201 73.046 49.1201C73.8752 49.1201 74.5484 49.7934 74.5484 50.6226C74.5484 51.4519 73.8752 52.1251 73.046 52.1251C72.2167 52.1251 71.5435 51.4519 71.5435 50.6226ZM37.5777 66.9469V51.0411C38.6684 51.2333 39.7944 51.3401 40.945 51.3401C41.9647 51.3401 42.9707 51.2473 43.9422 51.0928V66.9469C43.9422 68.6957 42.5123 70.1366 40.7674 70.1366C39.0196 70.1366 37.5777 68.7076 37.5777 66.9469ZM13.4391 57.6378C13.4391 56.8085 14.1123 56.1353 14.9415 56.1353C15.7708 56.1353 16.444 56.8085 16.444 57.6378C16.444 58.467 15.7708 59.1402 14.9415 59.1402C14.1123 59.1402 13.4391 58.467 13.4391 57.6378ZM65.5051 57.6526C65.5051 56.8233 66.1783 56.1501 67.0076 56.1501C67.8369 56.1501 68.5101 56.8233 68.5101 57.6526C68.5101 58.4818 67.8369 59.155 67.0076 59.155C66.1783 59.155 65.5051 58.4818 65.5051 57.6526ZM21.9342 64.4013C21.9342 63.5721 22.6074 62.8989 23.4367 62.8989C24.2659 62.8989 24.9392 63.5721 24.9392 64.4013C24.9392 65.2306 24.2659 65.9038 23.4367 65.9038C22.6074 65.9038 21.9342 65.2306 21.9342 64.4013ZM57.01 64.4161C57.01 63.5869 57.6832 62.9137 58.5125 62.9137C59.3417 62.9137 60.0149 63.5869 60.0149 64.4161C60.0149 65.2454 59.3417 65.9186 58.5125 65.9186C57.6832 65.9186 57.01 65.2454 57.01 64.4161Z" fill="#090909"/>
</svg>
