<svg width="80" height="80" viewBox="0 0 80 80" fill="none" xmlns="http://www.w3.org/2000/svg">
<path d="M39.859 17.8682L28.3821 26.6124C25.5789 31.4548 29.968 31.1067 32.135 29.8137V36.7462C32.135 39.3183 33.5416 39.8064 34.2449 39.7289C36.9725 39.6925 42.996 39.6415 45.2695 39.7289C47.5431 39.8164 48.1114 38.2351 48.1114 37.4335V30.6021C52.0027 32.2198 52.8297 29.5637 52.7568 28.0334L39.859 17.8682Z" fill="#FFE0BE"/>
<path d="M40 10.6819C40.7974 10.6819 41.4438 10.0355 41.4438 9.23809C41.4438 8.44068 40.7974 7.79425 40 7.79425C39.2026 7.79425 38.5561 8.44068 38.5561 9.23809C38.5561 10.0355 39.2026 10.6819 40 10.6819Z" fill="#090909"/>
<path fill-rule="evenodd" clip-rule="evenodd" d="M52.4468 26.1584L42.1694 17.8385C41.5117 17.3033 40.6706 17.0739 40.0588 17.1656C39.2024 17.0586 38.3612 17.3033 37.6883 17.8385L27.4262 26.1584C26.7685 26.6937 26.3556 27.4431 26.2638 28.2842C26.1721 29.1254 26.4168 29.9512 27.0744 30.7465C27.6097 31.4041 28.3591 31.8171 29.2002 31.9088C29.2538 31.9088 29.3111 31.9127 29.3685 31.9165C29.4258 31.9203 29.4832 31.9241 29.5367 31.9241C30.0873 31.9241 30.6073 31.7406 31.0814 31.4653V37.5675C31.0814 39.1734 32.3813 40.4734 33.9872 40.4734C34.5072 40.4734 34.9354 40.0451 34.9354 39.5251C34.9354 39.0052 34.5072 38.5769 33.9872 38.5769C33.4213 38.5769 32.9778 38.1181 32.9778 37.5675V30.043L39.9365 24.4149L47.0328 30.1653V37.5828C47.0328 38.1487 46.574 38.5922 46.0234 38.5922H38.6977C38.1777 38.5922 37.7495 39.0205 37.7495 39.5404C37.7495 40.0604 38.1777 40.4887 38.6977 40.4887H46.0234C47.6292 40.4887 48.9292 39.1887 48.9292 37.5828V31.5418C50.2292 32.2147 51.8656 31.9547 52.9362 30.6395C54.0373 29.2783 53.8232 27.2901 52.4774 26.189L52.4468 26.1584ZM51.3303 29.5536C50.8868 30.0889 50.0915 30.1806 49.541 29.7371L39.9212 21.9526L30.3167 29.7371C30.0567 29.9512 29.7355 30.043 29.3838 30.0124C29.0473 29.9818 28.7414 29.8136 28.405 29.4007C28.1908 29.1407 28.0991 28.8042 28.1297 28.4677C28.1603 28.1313 28.3285 27.8254 28.5885 27.6113L38.8659 19.2915C39.1259 19.0773 39.4777 18.9703 40.0282 19.0315C40.38 18.9856 40.7012 19.0926 40.9612 19.3068L51.2386 27.6266C51.7892 28.0701 51.8656 28.8654 51.315 29.5536H51.3303Z" fill="#090909"/>
<path d="M36.4519 54.5849C37.0019 54.5849 37.4548 54.132 37.4548 53.582V49.0686C37.4548 47.4995 38.7328 46.2215 40.3019 46.2215C41.8711 46.2215 43.1491 47.4995 43.1491 49.0686C43.1491 49.6186 43.602 50.0716 44.152 50.0716C44.702 50.0716 45.155 49.6186 45.155 49.0686C45.155 46.3995 42.9711 44.2156 40.3019 44.2156C37.6328 44.2156 35.4489 46.3995 35.4489 49.0686V53.582C35.4489 54.132 35.9018 54.5849 36.4519 54.5849Z" fill="#090909"/>
<path d="M43.1491 53.4848C43.1491 52.9347 43.602 52.4818 44.152 52.4818C44.702 52.4818 45.155 52.9347 45.155 53.4848V57.8363C45.155 60.5055 42.9711 62.6894 40.3019 62.6894C37.6328 62.6894 35.4489 60.5055 35.4489 57.8363C35.4489 57.2863 35.9018 56.8334 36.4519 56.8334C37.0019 56.8334 37.4548 57.2863 37.4548 57.8363C37.4548 59.4055 38.7328 60.6834 40.3019 60.6834C41.8711 60.6834 43.1491 59.4055 43.1491 57.8363V53.4848Z" fill="#090909"/>
<path d="M39.347 56.1536V50.7344C39.347 50.1844 39.7999 49.7314 40.3499 49.7314C40.8999 49.7314 41.3529 50.1844 41.3529 50.7344V56.1536C41.3529 56.7036 40.8999 57.1566 40.3499 57.1566C39.7999 57.1566 39.347 56.7036 39.347 56.1536Z" fill="#090909"/>
<path d="M37.1123 69.9714C36.56 69.9714 36.1123 70.4191 36.1123 70.9714C36.1123 71.5236 36.56 71.9713 37.1123 71.9713H42.8877C43.4399 71.9713 43.8876 71.5236 43.8876 70.9714C43.8876 70.4191 43.4399 69.9714 42.8877 69.9714H37.1123Z" fill="#090909"/>
<path fill-rule="evenodd" clip-rule="evenodd" d="M21.23 6.79199C21.23 5.19716 22.5228 3.9043 24.1177 3.9043H55.8823C57.4771 3.9043 58.77 5.19716 58.77 6.79199V73.2089C58.77 74.8037 57.4771 76.0966 55.8823 76.0966H24.1177C22.5229 76.0966 21.23 74.8037 21.23 73.2089V6.79199ZM24.1177 5.9042H55.8823C56.3726 5.9042 56.7701 6.30168 56.7701 6.79199V11.848H23.2299V6.79199C23.2299 6.30168 23.6274 5.9042 24.1177 5.9042ZM23.2299 13.8479V66.1669H56.7701V13.8479H23.2299ZM23.2299 68.1668V73.2089C23.2299 73.6992 23.6274 74.0967 24.1177 74.0967H55.8823C56.3726 74.0967 56.7701 73.6992 56.7701 73.2089V68.1668H23.2299Z" fill="#090909"/>
</svg>
