<svg width="80" height="80" viewBox="0 0 80 80" fill="none" xmlns="http://www.w3.org/2000/svg">
<path d="M67.0506 13.6816H12.6321V38.5088H67.0506V13.6816Z" fill="#FFE0BE"/>
<path d="M36.7129 55.2886H18.4148V67.6372H36.7129V55.2886Z" fill="#FFE0BE"/>
<path d="M18.1225 7.88306C17.1548 7.88306 16.3704 8.6675 16.3704 9.63515C16.3704 10.6028 17.1548 11.3872 18.1225 11.3872C19.0902 11.3872 19.8746 10.6028 19.8746 9.63515C19.8746 8.6675 19.0902 7.88306 18.1225 7.88306Z" fill="#090909"/>
<path d="M24.1433 7.88306C23.1756 7.88306 22.3912 8.6675 22.3912 9.63515C22.3912 10.6028 23.1756 11.3872 24.1433 11.3872C25.1109 11.3872 25.8953 10.6028 25.8953 9.63515C25.8953 8.6675 25.1109 7.88306 24.1433 7.88306Z" fill="#090909"/>
<path d="M30.164 7.88306C29.1964 7.88306 28.4119 8.6675 28.4119 9.63515C28.4119 10.6028 29.1964 11.3872 30.164 11.3872C31.1317 11.3872 31.9161 10.6028 31.9161 9.63515C31.9161 8.6675 31.1317 7.88306 30.164 7.88306Z" fill="#090909"/>
<path d="M35.3619 21.6829C34.1766 20.5188 32.2635 20.5103 31.0852 21.6887L17.1809 35.5929C16.8255 35.9484 16.8255 36.5246 17.1809 36.88C17.5363 37.2354 18.1126 37.2354 18.468 36.88L32.3722 22.9757C32.8331 22.5148 33.6016 22.5066 34.0852 22.9803L34.0866 22.9816L47.9849 36.88C48.3403 37.2354 48.9166 37.2354 49.272 36.88C49.6274 36.5246 49.6274 35.9484 49.272 35.5929L35.6237 21.9447L35.6261 21.9424L35.3619 21.6829Z" fill="#090909"/>
<path d="M49.9495 23.2007C49.0047 22.2796 47.4808 22.2675 46.5395 23.2088L42.6648 27.0835C42.3094 27.4389 42.3094 28.0152 42.6648 28.3706C43.0202 28.726 43.5964 28.726 43.9519 28.3706L47.8266 24.4959C48.0475 24.275 48.4288 24.2635 48.6756 24.5008L58.5511 34.3764C58.9066 34.7318 59.4828 34.7318 59.8382 34.3764C60.1936 34.021 60.1936 33.4448 59.8382 33.0893L49.9552 23.2063L49.9495 23.2007Z" fill="#090909"/>
<path fill-rule="evenodd" clip-rule="evenodd" d="M20.1494 53.4187C18.4616 53.4187 17.0933 54.787 17.0933 56.4748V66.1467C17.0933 67.8345 18.4616 69.2028 20.1494 69.2028H35.2459C36.9337 69.2028 38.302 67.8345 38.302 66.1467V56.4748C38.302 54.787 36.9337 53.4187 35.2459 53.4187H20.1494ZM18.9135 56.4748C18.9135 55.7922 19.4668 55.2389 20.1494 55.2389H35.2459C35.9285 55.2389 36.4818 55.7922 36.4818 56.4748V66.1467C36.4818 66.8293 35.9285 67.3826 35.2459 67.3826H20.1494C19.4668 67.3826 18.9135 66.8293 18.9135 66.1467V56.4748Z" fill="#090909"/>
<path d="M44.1728 55.7881C43.6702 55.7881 43.2627 56.1955 43.2627 56.6982C43.2627 57.2008 43.6702 57.6083 44.1728 57.6083H53.9341C54.4368 57.6083 54.8442 57.2008 54.8442 56.6982C54.8442 56.1955 54.4368 55.7881 53.9341 55.7881H44.1728Z" fill="#090909"/>
<path d="M44.1728 59.2451C43.6702 59.2451 43.2627 59.6526 43.2627 60.1552C43.2627 60.6578 43.6702 61.0653 44.1728 61.0653H60.4913C60.994 61.0653 61.4014 60.6578 61.4014 60.1552C61.4014 59.6526 60.994 59.2451 60.4913 59.2451H44.1728Z" fill="#090909"/>
<path d="M44.1728 62.688C43.6702 62.688 43.2627 63.0954 43.2627 63.5981C43.2627 64.1007 43.6702 64.5082 44.1728 64.5082H60.4913C60.994 64.5082 61.4014 64.1007 61.4014 63.5981C61.4014 63.0954 60.994 62.688 60.4913 62.688H44.1728Z" fill="#090909"/>
<path d="M44.1728 66.1458C43.6702 66.1458 43.2627 66.5532 43.2627 67.0558C43.2627 67.5585 43.6702 67.9659 44.1728 67.9659H60.4913C60.994 67.9659 61.4014 67.5585 61.4014 67.0558C61.4014 66.5532 60.994 66.1458 60.4913 66.1458H44.1728Z" fill="#090909"/>
<path fill-rule="evenodd" clip-rule="evenodd" d="M25.0227 44.8643C23.6888 44.8643 22.6075 45.9456 22.6075 47.2795C22.6075 48.6134 23.6888 49.6948 25.0227 49.6948C26.3566 49.6948 27.438 48.6134 27.438 47.2795C27.438 45.9456 26.3567 44.8643 25.0227 44.8643ZM24.4276 47.2795C24.4276 46.9509 24.6941 46.6844 25.0227 46.6844C25.3514 46.6844 25.6178 46.9509 25.6178 47.2795C25.6178 47.6082 25.3514 47.8746 25.0227 47.8746C24.6941 47.8746 24.4276 47.6082 24.4276 47.2795Z" fill="#090909"/>
<path fill-rule="evenodd" clip-rule="evenodd" d="M32.5486 44.1787C30.8361 44.1787 29.4478 45.567 29.4478 47.2795C29.4478 48.992 30.8361 50.3803 32.5486 50.3803C34.2611 50.3803 35.6494 48.992 35.6494 47.2795C35.6494 45.567 34.2611 44.1787 32.5486 44.1787ZM31.268 47.2795C31.268 46.5722 31.8413 45.9989 32.5486 45.9989C33.2559 45.9989 33.8292 46.5722 33.8292 47.2795C33.8292 47.9868 33.2559 48.5601 32.5486 48.5601C31.8413 48.5601 31.268 47.9868 31.268 47.2795Z" fill="#090909"/>
<path fill-rule="evenodd" clip-rule="evenodd" d="M40.0891 44.1787C38.3766 44.1787 36.9883 45.567 36.9883 47.2795C36.9883 48.992 38.3766 50.3803 40.0891 50.3803C41.8016 50.3803 43.1899 48.992 43.1899 47.2795C43.1899 45.567 41.8016 44.1787 40.0891 44.1787ZM38.8085 47.2795C38.8085 46.5722 39.3819 45.9989 40.0891 45.9989C40.7964 45.9989 41.3697 46.5722 41.3697 47.2795C41.3697 47.9868 40.7964 48.5601 40.0891 48.5601C39.3819 48.5601 38.8085 47.9868 38.8085 47.2795Z" fill="#090909"/>
<path fill-rule="evenodd" clip-rule="evenodd" d="M47.615 44.1787C45.9025 44.1787 44.5142 45.567 44.5142 47.2795C44.5142 48.992 45.9025 50.3803 47.615 50.3803C49.3275 50.3803 50.7158 48.992 50.7158 47.2795C50.7158 45.567 49.3275 44.1787 47.615 44.1787ZM46.3344 47.2795C46.3344 46.5722 46.9077 45.9989 47.615 45.9989C48.3223 45.9989 48.8956 46.5722 48.8956 47.2795C48.8956 47.9868 48.3223 48.5601 47.615 48.5601C46.9077 48.5601 46.3344 47.9868 46.3344 47.2795Z" fill="#090909"/>
<path fill-rule="evenodd" clip-rule="evenodd" d="M54.9773 44.7449C53.6434 44.7449 52.5621 45.8262 52.5621 47.1601C52.5621 48.494 53.6434 49.5754 54.9773 49.5754C56.3112 49.5754 57.3926 48.494 57.3926 47.1601C57.3926 45.8262 56.3112 44.7449 54.9773 44.7449ZM54.3822 47.1601C54.3822 46.8315 54.6487 46.565 54.9773 46.565C55.306 46.565 55.5724 46.8315 55.5724 47.1601C55.5724 47.4888 55.306 47.7552 54.9773 47.7552C54.6487 47.7552 54.3822 47.4888 54.3822 47.1601Z" fill="#090909"/>
<path fill-rule="evenodd" clip-rule="evenodd" d="M16.3046 3.98633C13.4727 3.98633 11.177 6.28202 11.177 9.11389V70.8858C11.177 73.7177 13.4727 76.0134 16.3046 76.0134H63.6954C66.5273 76.0134 68.823 73.7177 68.823 70.8858V9.11389C68.823 6.28202 66.5273 3.98633 63.6954 3.98633H16.3046ZM12.9972 9.11389C12.9972 7.28727 14.478 5.8065 16.3046 5.8065H63.6954C65.522 5.8065 67.0028 7.28727 67.0028 9.11389V12.749H12.9972V9.11389ZM12.9972 14.5692V38.4861H67.0028V14.5692H12.9972ZM12.9972 40.3063V70.8858C12.9972 72.7124 14.478 74.1932 16.3046 74.1932H63.6954C65.522 74.1932 67.0028 72.7124 67.0028 70.8858V40.3063H12.9972Z" fill="#090909"/>
</svg>
