<svg width="80" height="80" viewBox="0 0 80 80" fill="none" xmlns="http://www.w3.org/2000/svg">
<path d="M67.5088 13.2405C67.5088 17.5813 63.9899 21.1002 59.6491 21.1002C55.3083 21.1002 51.7894 17.5813 51.7894 13.2405C51.7894 8.89975 55.3083 5.38086 59.6491 5.38086C63.9899 5.38086 67.5088 8.89975 67.5088 13.2405Z" fill="#FFE0BE"/>
<path d="M47.9716 29.7139C47.9716 34.0547 44.4527 37.5736 40.1119 37.5736C35.7711 37.5736 32.2522 34.0547 32.2522 29.7139C32.2522 25.3732 35.7711 21.8543 40.1119 21.8543C44.4527 21.8543 47.9716 25.3732 47.9716 29.7139Z" fill="#FFE0BE"/>
<path d="M20.4261 53.6887C24.7668 53.6887 28.2857 50.1698 28.2857 45.829C28.2857 41.4882 24.7668 37.9693 20.4261 37.9693C16.0853 37.9693 12.5664 41.4882 12.5664 45.829C12.5664 50.1698 16.0853 53.6887 20.4261 53.6887Z" fill="#FFE0BE"/>
<path d="M62.6967 9.76599C61.7658 9.76599 61.0112 10.5206 61.0112 11.4515C61.0112 12.3824 61.7658 13.1371 62.6967 13.1371C63.6276 13.1371 64.3823 12.3824 64.3823 11.4515C64.3823 10.5206 63.6276 9.76599 62.6967 9.76599Z" fill="#090909"/>
<path d="M56.5254 9.76599C55.5945 9.76599 54.8399 10.5206 54.8399 11.4515C54.8399 12.3824 55.5945 13.1371 56.5254 13.1371C57.4563 13.1371 58.211 12.3824 58.211 11.4515C58.211 10.5206 57.4563 9.76599 56.5254 9.76599Z" fill="#090909"/>
<path d="M57.0369 15.815C56.6045 15.3826 55.9246 15.3826 55.4922 15.815L55.4891 15.8181L55.486 15.8213C55.0767 16.2522 55.0767 16.9225 55.486 17.3534L55.4899 17.3575L55.4939 17.3614C56.6335 18.4851 58.1223 19.0556 59.6113 19.0556C61.0982 19.0556 62.5887 18.5014 63.7304 17.3597L63.7336 17.3566L63.7366 17.3534C64.1459 16.9225 64.1459 16.2522 63.7366 15.8213L63.7336 15.8181L63.7304 15.815C63.298 15.3826 62.6182 15.3826 62.1857 15.815C60.7696 17.2311 58.453 17.2311 57.0369 15.815Z" fill="#090909"/>
<path fill-rule="evenodd" clip-rule="evenodd" d="M59.6114 4.39941C54.7405 4.39941 50.7702 8.36972 50.7702 13.2406C50.7702 18.1111 54.7252 22.0818 59.6114 22.0818C64.4823 22.0818 68.4526 18.1115 68.4526 13.2406C68.4526 8.36972 64.4823 4.39941 59.6114 4.39941ZM52.9487 13.2257C52.9487 9.55454 55.9403 6.56299 59.6114 6.56299C63.2826 6.56299 66.2742 9.55454 66.2742 13.2257C66.2742 16.8969 63.2826 19.8884 59.6114 19.8884C55.9403 19.8884 52.9487 16.8969 52.9487 13.2257Z" fill="#090909"/>
<path d="M43.1982 26.2389C42.2673 26.2389 41.5127 26.9936 41.5127 27.9245C41.5127 28.8554 42.2673 29.61 43.1982 29.61C44.1291 29.61 44.8838 28.8554 44.8838 27.9245C44.8838 26.9936 44.1291 26.2389 43.1982 26.2389Z" fill="#090909"/>
<path d="M37.0109 26.2389C36.08 26.2389 35.3253 26.9936 35.3253 27.9245C35.3253 28.8554 36.08 29.61 37.0109 29.61C37.9418 29.61 38.6964 28.8554 38.6964 27.9245C38.6964 26.9936 37.9418 26.2389 37.0109 26.2389Z" fill="#090909"/>
<path d="M36.7573 31.9641C36.15 31.9641 35.6681 32.446 35.6681 33.0533C35.6681 33.6606 36.15 34.1426 36.7573 34.1426H43.4508C44.0582 34.1426 44.5401 33.6606 44.5401 33.0533C44.5401 32.446 44.0582 31.9641 43.4508 31.9641H36.7573Z" fill="#090909"/>
<path fill-rule="evenodd" clip-rule="evenodd" d="M40.112 20.8728C35.2411 20.8728 31.2708 24.8431 31.2708 29.714C31.2708 34.5845 35.2258 38.5552 40.112 38.5552C44.9829 38.5552 48.9532 34.5849 48.9532 29.714C48.9532 24.8431 44.9829 20.8728 40.112 20.8728ZM33.4493 29.6991C33.4493 26.028 36.4408 23.0364 40.112 23.0364C43.7831 23.0364 46.7747 26.028 46.7747 29.6991C46.7747 33.3703 43.7831 36.3618 40.112 36.3618C36.4408 36.3618 33.4493 33.3703 33.4493 29.6991Z" fill="#090909"/>
<path fill-rule="evenodd" clip-rule="evenodd" d="M54.8558 24.7631C52.3552 24.7631 50.308 26.8103 50.308 29.3109V71.0526C50.308 73.5524 52.3395 75.6004 54.8558 75.6004H64.2924C66.7921 75.6004 68.8402 73.5689 68.8402 71.0526V29.3109C68.8402 26.8111 66.8086 24.7631 64.2924 24.7631H54.8558ZM52.4865 43.2952H66.6617V57.0683H52.4865V43.2952ZM52.4865 29.3109C52.4865 28.01 53.555 26.9416 54.8558 26.9416H64.2924C65.5932 26.9416 66.6617 28.01 66.6617 29.3109V40.9232H52.4865V29.3109ZM52.4865 59.4554H66.6617V71.0526C66.6617 72.3535 65.5932 73.422 64.2924 73.422H54.8558C53.555 73.422 52.4865 72.3535 52.4865 71.0526V59.4554Z" fill="#090909"/>
<path fill-rule="evenodd" clip-rule="evenodd" d="M30.7345 45.471C30.7345 42.9705 32.7817 40.9232 35.2823 40.9232H44.7188C47.2194 40.9232 49.2666 42.9705 49.2666 45.471V71.0526C49.2666 73.5689 47.2186 75.6004 44.7188 75.6004H35.2823C32.7817 75.6004 30.7345 73.5532 30.7345 71.0526V45.471ZM32.9129 59.4554V71.0526C32.9129 72.3535 33.9814 73.422 35.2823 73.422H44.7188C46.0196 73.422 47.0881 72.3535 47.0881 71.0526V59.4554H32.9129ZM47.0881 57.0683V45.471C47.0881 44.1702 46.0196 43.1017 44.7188 43.1017H35.2823C33.9814 43.1017 32.9129 44.1702 32.9129 45.471V57.0683H47.0881Z" fill="#090909"/>
<path fill-rule="evenodd" clip-rule="evenodd" d="M15.708 57.0683C13.2082 57.0683 11.1602 59.0998 11.1602 61.6161V71.0526C11.1602 73.5532 13.2074 75.6004 15.708 75.6004H25.1445C27.6443 75.6004 29.6923 73.5689 29.6923 71.0526V61.6161C29.6923 59.1155 27.6451 57.0683 25.1445 57.0683H15.708ZM13.3386 61.6161C13.3386 60.3152 14.4071 59.2468 15.708 59.2468H25.1445C26.4453 59.2468 27.5138 60.3152 27.5138 61.6161V71.0526C27.5138 72.3535 26.4453 73.422 25.1445 73.422H15.708C14.4071 73.422 13.3386 72.3535 13.3386 71.0526V61.6161Z" fill="#090909"/>
<path d="M23.4301 42.3542C22.4992 42.3542 21.7446 43.1089 21.7446 44.0398C21.7446 44.9707 22.4992 45.7253 23.4301 45.7253C24.361 45.7253 25.1157 44.9707 25.1157 44.0398C25.1157 43.1089 24.361 42.3542 23.4301 42.3542Z" fill="#090909"/>
<path d="M17.2584 42.3542C16.3275 42.3542 15.5728 43.1089 15.5728 44.0398C15.5728 44.9707 16.3275 45.7253 17.2584 45.7253C18.1893 45.7253 18.9439 44.9707 18.9439 44.0398C18.9439 43.1089 18.1893 42.3542 17.2584 42.3542Z" fill="#090909"/>
<path fill-rule="evenodd" clip-rule="evenodd" d="M20.3441 36.9879C15.4732 36.9879 11.5029 40.9582 11.5029 45.8291C11.5029 50.6996 15.4579 54.6703 20.3441 54.6703C25.215 54.6703 29.1853 50.7 29.1853 45.8291C29.1853 40.9582 25.215 36.9879 20.3441 36.9879ZM13.6814 45.8142C13.6814 42.143 16.673 39.1515 20.3441 39.1515C24.0153 39.1515 27.0068 42.143 27.0068 45.8142C27.0068 47.8009 26.1307 49.5887 24.7448 50.8109C24.832 50.4551 24.7403 50.0657 24.4697 49.7808L24.4666 49.7776L24.4635 49.7745C23.3557 48.6667 21.8968 48.0638 20.3444 48.0638C18.7939 48.0638 17.319 48.6654 16.2244 49.7754C15.9427 50.0577 15.845 50.445 15.9313 50.8002C14.5524 49.5782 13.6814 47.7951 13.6814 45.8142ZM20.3441 52.4769C19.1722 52.4769 18.0695 52.1721 17.1113 51.6376C17.3504 51.6121 17.5833 51.506 17.77 51.3193C18.4504 50.6389 19.3764 50.2572 20.3444 50.2572C21.3108 50.2572 22.2193 50.6227 22.9132 51.3137C23.0931 51.5095 23.3344 51.6143 23.5757 51.6382C22.6178 52.1723 21.5155 52.4769 20.3441 52.4769Z" fill="#090909"/>
</svg>
