<svg width="80" height="80" viewBox="0 0 80 80" fill="none" xmlns="http://www.w3.org/2000/svg">
<path d="M56.5284 15.7056C56.5284 17.3945 55.2846 18.7637 53.7503 18.7637C52.2161 18.7637 50.9723 17.3945 50.9723 15.7056C50.9723 14.0166 52.2161 12.6475 53.7503 12.6475C55.2846 12.6475 56.5284 14.0166 56.5284 15.7056Z" fill="#FFE0BE"/>
<path d="M38.9177 19.2538C38.9177 20.9427 37.6739 22.3119 36.1396 22.3119C34.6053 22.3119 33.3616 20.9427 33.3616 19.2538C33.3616 17.5648 34.6053 16.1957 36.1396 16.1957C37.6739 16.1957 38.9177 17.5648 38.9177 19.2538Z" fill="#FFE0BE"/>
<path d="M51.7136 21.369H55.1365V36.0428H51.7136V21.369Z" fill="#FFE0BE"/>
<path d="M34.4282 26.2435H37.8511V46.6766H34.4282V26.2435Z" fill="#FFE0BE"/>
<path d="M26.1672 34.205H29.5901V46.6763H26.1672V34.205Z" fill="#FFE0BE"/>
<path d="M46.3655 30.202H42.9426V46.6765L46.1586 41.2503L46.3655 30.202Z" fill="#FFE0BE"/>
<path d="M27.3364 30.5274C28.8706 30.5274 30.1144 29.1583 30.1144 27.4693C30.1144 25.7804 28.8706 24.4112 27.3364 24.4112C25.8021 24.4112 24.5583 25.7804 24.5583 27.4693C24.5583 29.1583 25.8021 30.5274 27.3364 30.5274Z" fill="#FFE0BE"/>
<path d="M44.8328 26.8609C46.3671 26.8609 47.6108 25.4917 47.6108 23.8028C47.6108 22.1138 46.3671 20.7446 44.8328 20.7446C43.2985 20.7446 42.0548 22.1138 42.0548 23.8028C42.0548 25.4917 43.2985 26.8609 44.8328 26.8609Z" fill="#FFE0BE"/>
<path d="M58.4482 58.3082C61.5733 58.3082 64.1067 55.7749 64.1067 52.6498C64.1067 49.5247 61.5733 46.9913 58.4482 46.9913C55.3232 46.9913 52.7898 49.5247 52.7898 52.6498C52.7898 55.7749 55.3232 58.3082 58.4482 58.3082Z" fill="#FFE0BE"/>
<path fill-rule="evenodd" clip-rule="evenodd" d="M7.21777 23.7557C7.21777 20.0052 10.2581 16.9648 14.0086 16.9648C17.7591 16.9648 20.7994 20.0052 20.7994 23.7557C20.7994 27.5061 17.7591 30.5465 14.0086 30.5465C10.2581 30.5465 7.21777 27.5061 7.21777 23.7557ZM13.0036 19.0704C10.8402 19.5322 9.21777 21.4545 9.21777 23.7557C9.21777 24.2515 9.2931 24.7297 9.43293 25.1796L13.0036 22.9588V19.0704ZM15.0036 19.0683C17.172 19.5263 18.7994 21.4509 18.7994 23.7557C18.7994 24.3134 18.7041 24.849 18.5288 25.3468L15.0036 22.9812V19.0683ZM17.4834 27.0538L13.983 24.7049L10.415 26.924C11.2929 27.9189 12.5774 28.5465 14.0086 28.5465C15.3765 28.5465 16.6104 27.9732 17.4834 27.0538Z" fill="#090909"/>
<path fill-rule="evenodd" clip-rule="evenodd" d="M24.0232 27.3758C24.0232 25.5141 25.5324 24.0049 27.3941 24.0049C29.2559 24.0049 30.7651 25.5141 30.7651 27.3758C30.7651 29.2375 29.2559 30.7468 27.3941 30.7468C25.5324 30.7468 24.0232 29.2375 24.0232 27.3758ZM27.3941 26.0049C26.637 26.0049 26.0232 26.6187 26.0232 27.3758C26.0232 28.133 26.637 28.7468 27.3941 28.7468C28.1513 28.7468 28.7651 28.133 28.7651 27.3758C28.7651 26.6187 28.1513 26.0049 27.3941 26.0049Z" fill="#090909"/>
<path fill-rule="evenodd" clip-rule="evenodd" d="M35.9691 16.019C34.1074 16.019 32.5981 17.5283 32.5981 19.39C32.5981 21.2517 34.1074 22.7609 35.9691 22.7609C37.8308 22.7609 39.34 21.2517 39.34 19.39C39.34 17.5283 37.8308 16.019 35.9691 16.019ZM34.5981 19.39C34.5981 18.6328 35.2119 18.019 35.9691 18.019C36.7262 18.019 37.34 18.6328 37.34 19.39C37.34 20.1471 36.7262 20.7609 35.9691 20.7609C35.2119 20.7609 34.5981 20.1471 34.5981 19.39Z" fill="#090909"/>
<path fill-rule="evenodd" clip-rule="evenodd" d="M41.4614 23.7557C41.4614 21.894 42.9706 20.3848 44.8324 20.3848C46.6941 20.3848 48.2033 21.894 48.2033 23.7557C48.2033 25.6174 46.6941 27.1267 44.8324 27.1267C42.9706 27.1267 41.4614 25.6174 41.4614 23.7557ZM44.8324 22.3848C44.0752 22.3848 43.4614 22.9986 43.4614 23.7557C43.4614 24.5129 44.0752 25.1267 44.8324 25.1267C45.5895 25.1267 46.2033 24.5129 46.2033 23.7557C46.2033 22.9986 45.5895 22.3848 44.8324 22.3848Z" fill="#090909"/>
<path fill-rule="evenodd" clip-rule="evenodd" d="M53.755 12.2271C51.8933 12.2271 50.384 13.7363 50.384 15.598C50.384 17.4597 51.8933 18.9689 53.755 18.9689C55.6167 18.9689 57.1259 17.4597 57.1259 15.598C57.1259 13.7363 55.6167 12.2271 53.755 12.2271ZM52.384 15.598C52.384 14.8408 52.9978 14.2271 53.755 14.2271C54.5121 14.2271 55.1259 14.8408 55.1259 15.598C55.1259 16.3551 54.5121 16.9689 53.755 16.9689C52.9978 16.9689 52.384 16.3551 52.384 15.598Z" fill="#090909"/>
<path d="M7.21777 32.6934C7.21777 32.1411 7.66549 31.6934 8.21777 31.6934H14.6996C15.2519 31.6934 15.6996 32.1411 15.6996 32.6934C15.6996 33.2456 15.2519 33.6934 14.6996 33.6934H8.21777C7.66549 33.6934 7.21777 33.2456 7.21777 32.6934Z" fill="#090909"/>
<path d="M8.21777 34.3628C7.66549 34.3628 7.21777 34.8105 7.21777 35.3628C7.21777 35.9151 7.66549 36.3628 8.21777 36.3628H16.5182C17.0705 36.3628 17.5182 35.9151 17.5182 35.3628C17.5182 34.8105 17.0705 34.3628 16.5182 34.3628H8.21777Z" fill="#090909"/>
<path d="M7.21777 38.0332C7.21777 37.4809 7.66549 37.0332 8.21777 37.0332H16.5182C17.0705 37.0332 17.5182 37.4809 17.5182 38.0332C17.5182 38.5855 17.0705 39.0332 16.5182 39.0332H8.21777C7.66549 39.0332 7.21777 38.5855 7.21777 38.0332Z" fill="#090909"/>
<path fill-rule="evenodd" clip-rule="evenodd" d="M58.4858 45.334C54.5494 45.334 51.3584 48.525 51.3584 52.4614C51.3584 56.3977 54.5494 59.5888 58.4858 59.5888C62.4221 59.5888 65.6132 56.3977 65.6132 52.4614C65.6132 48.525 62.4221 45.334 58.4858 45.334ZM53.3461 52.4614C53.3461 49.6228 55.6472 47.3217 58.4858 47.3217C61.3244 47.3217 63.6255 49.6228 63.6255 52.4614C63.6255 55.2999 61.3244 57.6011 58.4858 57.6011C55.6472 57.6011 53.3461 55.2999 53.3461 52.4614Z" fill="#090909"/>
<path fill-rule="evenodd" clip-rule="evenodd" d="M8.97539 10C6.22756 10 4 12.2276 4 14.9754V54.179C4 56.9268 6.22755 59.1544 8.97539 59.1544H42.3589C44.9846 65.4737 51.2162 69.9174 58.4858 69.9174C68.1265 69.9174 75.9418 62.1021 75.9418 52.4614C75.9418 45.1527 71.4501 38.8931 65.0766 36.2925V14.9754C65.0766 12.2276 62.8491 10 60.1012 10H8.97539ZM63.0766 35.6153V14.9754C63.0766 13.3321 61.7445 12 60.1012 12H8.97539C7.33213 12 6 13.3321 6 14.9754V54.179C6 55.8223 7.33213 57.1544 8.97539 57.1544H41.6679C41.2521 55.6611 41.0298 54.0872 41.0298 52.4614C41.0298 50.919 41.2298 49.4234 41.6054 47.999H22.0381C21.4858 47.999 21.0381 47.5513 21.0381 46.999C21.0381 46.4467 21.4858 45.999 22.0381 45.999H24.3369V32.5098H30.8092V45.999H32.7332V24.7393H39.2055V45.999H41.5962V28.5576H48.0685V38.4532C48.8388 37.8794 49.658 37.3677 50.5188 36.9254V20.3848H56.9911V35.0685C57.4838 35.0267 57.9823 35.0054 58.4858 35.0054C60.0746 35.0054 61.6138 35.2176 63.0766 35.6153ZM37.2055 45.999V26.7393H34.7332V45.999H37.2055ZM28.8092 45.999V34.5098H26.3369V45.999H28.8092ZM52.5188 22.3848V36.0518C53.3173 35.7614 54.1431 35.5276 54.9911 35.3553V22.3848H52.5188ZM46.0685 40.1926C45.1294 41.143 44.2986 42.2007 43.5962 43.3456V30.5576H46.0685V40.1926ZM57.4858 37.0372C49.6776 37.5358 43.446 43.8323 43.0498 51.668H45.618C46.0077 45.2489 51.0944 40.0979 57.4858 39.6076V37.0372ZM57.4858 67.8856C49.8153 67.3958 43.6663 61.3108 43.0762 53.668H45.6497C46.2276 59.8936 51.2322 64.8352 57.4858 65.315V67.8856ZM59.4858 67.8856C67.1563 67.3958 73.3053 61.3108 73.8954 53.668H71.3221C70.7442 59.8937 65.7395 64.8353 59.4858 65.315V67.8856ZM59.4858 37.0372C67.294 37.5358 73.5256 43.8323 73.9218 51.668H71.3539C70.9642 45.2488 65.8773 40.0978 59.4858 39.6075V37.0372ZM47.594 52.4613C47.594 46.4458 52.4705 41.5693 58.4859 41.5693C64.5014 41.5693 69.3779 46.4458 69.3779 52.4613C69.3779 58.4767 64.5014 63.3532 58.4859 63.3532C52.4705 63.3532 47.594 58.4767 47.594 52.4613Z" fill="#090909"/>
</svg>
